<svg width="298" height="158" viewBox="0 0 298 158" fill="none" xmlns="http://www.w3.org/2000/svg">
<mask id="mask0_87_126" style="mask-type:alpha" maskUnits="userSpaceOnUse" x="0" y="0" width="298" height="158">
<rect width="298" height="158" fill="#D9D9D9"/>
</mask>
<g mask="url(#mask0_87_126)">
<g filter="url(#filter0_d_87_126)">
<path d="M55.029 57.56C59.445 61.592 62.229 67.16 62.229 73.304C62.229 85.304 51.669 95.096 38.709 95.096H11.733V69.272H25.461V82.424H38.709C44.085 82.424 48.597 78.296 48.597 73.304C48.597 68.216 44.085 64.184 38.709 64.184H11.733V31.064H40.725C50.613 31.064 58.677 38.456 58.677 47.576C58.677 51.32 57.237 54.776 55.029 57.56ZM40.725 51.512C43.029 51.512 44.949 49.784 44.949 47.576C44.949 45.464 43.029 43.736 40.725 43.736H25.557V51.512H40.725ZM85.0838 75.8H71.4518V30.968H85.0838V75.8ZM114.748 95H71.4518V81.272H114.748V95ZM172.669 37.688C178.333 43.064 181.405 50.168 181.405 57.656V68.696C181.405 76.28 178.333 83.384 172.669 88.76C167.101 94.04 159.613 97.016 151.741 97.016C143.773 97.016 136.381 94.04 130.717 88.76C125.149 83.384 122.077 76.28 122.077 68.696V57.656C122.077 50.168 125.149 43.064 130.717 37.688C136.381 32.312 143.773 29.432 151.741 29.432C159.613 29.432 167.101 32.312 172.669 37.688ZM167.677 68.696V57.656C167.677 49.304 160.477 42.488 151.741 42.488C142.909 42.488 135.709 49.304 135.709 57.656V68.696C135.709 77.144 142.909 83.96 151.741 83.96C160.477 83.96 167.677 77.144 167.677 68.696ZM225.074 43.832C213.554 43.832 204.146 52.472 204.146 63.128C204.146 73.784 213.554 82.424 225.074 82.424H241.778V95.096H225.074C215.858 95.096 207.122 91.736 200.594 85.784C194.066 79.736 190.514 71.672 190.514 63.128C190.514 54.584 194.066 46.52 200.594 40.568C207.122 34.52 215.858 31.16 225.074 31.16H241.778V43.832H225.074ZM301.767 30.968L276.903 56.984L299.079 95H283.239L267.111 67.256L264.615 69.848V95H250.983V30.968H264.615V49.976L282.855 30.968H301.767ZM344.679 95H331.047V49.4H344.679V95ZM310.983 30.968H364.647V44.12H310.983V30.968ZM421.294 37.688C426.958 43.064 430.03 50.168 430.03 57.656V68.696C430.03 76.28 426.958 83.384 421.294 88.76C415.726 94.04 408.238 97.016 400.366 97.016C392.398 97.016 385.006 94.04 379.342 88.76C373.774 83.384 370.702 76.28 370.702 68.696V57.656C370.702 50.168 373.774 43.064 379.342 37.688C385.006 32.312 392.398 29.432 400.366 29.432C408.238 29.432 415.726 32.312 421.294 37.688ZM416.302 68.696V57.656C416.302 49.304 409.102 42.488 400.366 42.488C391.534 42.488 384.334 49.304 384.334 57.656V68.696C384.334 77.144 391.534 83.96 400.366 83.96C409.102 83.96 416.302 77.144 416.302 68.696ZM466.115 30.968C479.075 30.968 489.635 41.24 489.635 53.72C489.635 66.296 479.075 76.472 466.115 76.472H452.771V95.096H439.139V63.32H452.771H466.115C471.491 63.32 476.003 59 476.003 53.72C476.003 48.536 471.491 44.216 466.115 44.216H452.771V57.944H439.139V30.968H466.115ZM544.458 30.776H558.186V67.352C558.186 74.936 555.114 82.04 549.45 87.416C543.882 92.888 536.394 95.768 528.522 95.768C520.554 95.768 513.162 92.888 507.498 87.416C501.93 82.04 498.858 74.936 498.858 67.352V30.776H512.49V67.352C512.49 75.8 519.69 82.616 528.522 82.616C537.258 82.616 544.458 75.8 544.458 67.352V30.776ZM603.391 56.12C614.911 56.12 624.223 64.568 624.223 75.128V75.896C624.223 86.456 614.911 95 603.391 95H573.727V82.232H603.391C607.327 82.232 610.591 79.448 610.591 75.896V75.128C610.591 71.672 607.327 68.792 603.391 68.792H588.127C576.607 68.792 567.295 60.248 567.295 49.784C567.295 39.32 576.607 30.776 588.127 30.776H616.255V43.544H588.127C584.191 43.544 580.927 46.328 580.927 49.784C580.927 53.24 584.191 56.12 588.127 56.12H603.391Z" fill="white"/>
</g>
<line x1="7" y1="137.5" x2="629.001" y2="137.5" stroke="white" stroke-width="19" stroke-dasharray="37 37"/>
</g>
<defs>
<filter id="filter0_d_87_126" x="7.73291" y="29.4321" width="620.491" height="75.584" filterUnits="userSpaceOnUse" color-interpolation-filters="sRGB">
<feFlood flood-opacity="0" result="BackgroundImageFix"/>
<feColorMatrix in="SourceAlpha" type="matrix" values="0 0 0 0 0 0 0 0 0 0 0 0 0 0 0 0 0 0 127 0" result="hardAlpha"/>
<feOffset dy="4"/>
<feGaussianBlur stdDeviation="2"/>
<feComposite in2="hardAlpha" operator="out"/>
<feColorMatrix type="matrix" values="0 0 0 0 0 0 0 0 0 0 0 0 0 0 0 0 0 0 0.25 0"/>
<feBlend mode="normal" in2="BackgroundImageFix" result="effect1_dropShadow_87_126"/>
<feBlend mode="normal" in="SourceGraphic" in2="effect1_dropShadow_87_126" result="shape"/>
</filter>
</defs>
</svg>
