<svg width="2672" height="5772" viewBox="0 0 2672 5772" fill="none" xmlns="http://www.w3.org/2000/svg">
<mask id="mask0_155_279" style="mask-type:alpha" maskUnits="userSpaceOnUse" x="0" y="0" width="2672" height="5772">
<rect width="2672" height="5772" fill="url(#paint0_linear_155_279)"/>
</mask>
<g mask="url(#mask0_155_279)">
<rect x="-687" y="-517" width="3591" height="7028" fill="url(#paint1_linear_155_279)"/>
<path d="M-818.168 2513.31C-578.084 2702.39 -289.214 2819.35 14.7858 2850.57C318.786 2881.78 625.397 2825.97 898.897 2689.63C1172.4 2553.29 1401.52 2342.04 1559.58 2080.49C1717.63 1818.94 1798.11 1517.86 1791.64 1212.33C1785.16 906.801 1692 609.402 1523 354.784C1354.01 100.165 1116.13 -101.188 837.104 -225.816C558.073 -350.444 249.372 -393.215 -53.0321 -349.146C-355.436 -305.077 -639.091 -175.982 -870.949 23.0973L17.7134 1058.08C53.4233 1027.41 97.1109 1007.53 143.686 1000.74C190.261 993.957 237.807 1000.54 280.782 1019.74C323.757 1038.93 360.393 1069.95 386.422 1109.16C412.45 1148.38 426.799 1194.18 427.796 1241.24C428.794 1288.29 416.398 1334.67 392.055 1374.95C367.712 1415.23 332.423 1447.77 290.299 1468.77C248.176 1489.76 200.952 1498.36 154.131 1493.55C107.31 1488.74 62.8194 1470.73 25.8424 1441.61L-818.168 2513.31Z" fill="url(#paint2_radial_155_279)"/>
<path d="M2375.64 6352.29C2056.59 6403.89 1729.61 6339.57 1453.87 6170.98C1178.13 6002.38 971.844 5740.65 872.351 5433.15C772.858 5125.65 786.727 4792.69 911.448 4494.52C1036.17 4196.36 1263.5 3952.69 1552.31 3807.62C1841.12 3662.54 2172.32 3625.64 2485.97 3703.59C2799.63 3781.54 3075.02 3969.19 3262.31 4232.59C3449.6 4495.99 3536.42 4817.73 3507.05 5139.59C3477.68 5461.46 3334.06 5762.17 3102.19 5987.32L2279.46 5140.04C2308.94 5111.42 2327.2 5073.19 2330.93 5032.27C2334.66 4991.36 2323.63 4950.46 2299.82 4916.98C2276.01 4883.49 2241 4859.64 2201.13 4849.73C2161.26 4839.82 2119.15 4844.51 2082.44 4862.95C2045.73 4881.39 2016.83 4912.37 2000.97 4950.27C1985.12 4988.18 1983.36 5030.5 1996 5069.59C2008.65 5108.68 2034.87 5141.95 2069.93 5163.39C2104.98 5184.82 2146.55 5192.99 2187.1 5186.43L2375.64 6352.29Z" fill="url(#paint3_radial_155_279)"/>
<path d="M3279 2378C3279 2141.77 3204.48 1912.56 3067.68 1728.03C2930.88 1543.5 2739.94 1414.63 2526.22 1362.58C2312.51 1310.53 2088.73 1338.41 1891.65 1441.62C1694.57 1544.84 1535.91 1717.26 1441.74 1930.56C1347.56 2143.85 1323.48 2385.34 1373.43 2615.35C1423.39 2845.36 1544.42 3050.21 1716.63 3196.25C1888.85 3342.29 2102.02 3420.83 2321.11 3418.97C2540.2 3417.11 2752.19 3334.95 2922.25 3186.01L2377.13 2462.46C2359.36 2478.03 2337.2 2486.62 2314.3 2486.82C2291.39 2487.01 2269.11 2478.8 2251.11 2463.53C2233.11 2448.27 2220.45 2426.85 2215.23 2402.81C2210.01 2378.77 2212.53 2353.52 2222.37 2331.23C2232.22 2308.93 2248.8 2290.91 2269.4 2280.12C2290 2269.33 2313.4 2266.41 2335.74 2271.86C2358.08 2277.3 2378.04 2290.77 2392.34 2310.06C2406.64 2329.35 2414.43 2353.31 2414.43 2378H3279Z" fill="url(#paint4_radial_155_279)"/>
<path d="M-802.755 4636.3C-968.309 4413.11 -1045.19 4137.15 -1017.74 3864.66C-990.288 3592.17 -860.566 3343.65 -655.002 3169.71C-449.438 2995.78 -183.499 2909.53 88.6387 2928.53C360.776 2947.53 618.636 3070.35 809.687 3271.97C1000.74 3473.6 1110.6 3738.85 1116.9 4013.7C1123.21 4288.55 1025.47 4552.31 843.598 4751.25C661.73 4950.19 409.416 5069.34 138.061 5084.43C-133.295 5099.52 -403.278 5009.41 -616.885 4832.46L-244.906 4369.39C-150.984 4447.19 -32.2745 4486.81 87.0389 4480.18C206.352 4473.54 317.293 4421.15 397.259 4333.68C477.225 4246.21 520.201 4130.23 517.43 4009.39C514.66 3888.54 466.352 3771.91 382.349 3683.25C298.345 3594.6 184.965 3540.6 65.3084 3532.24C-54.3486 3523.89 -171.281 3561.81 -261.666 3638.29C-352.051 3714.77 -409.089 3824.04 -421.159 3943.85C-433.23 4063.67 -399.425 4185 -326.632 4283.14L-802.755 4636.3Z" fill="url(#paint5_radial_155_279)"/>
<path fill-rule="evenodd" clip-rule="evenodd" d="M463.651 1714L-664 1913.99L-464.01 3041.64L663.641 2841.65L463.651 1714ZM339.122 1893.64L-484.359 2039.69L-338.314 2863.17L485.168 2717.12L339.122 1893.64Z" fill="#BFE5F6"/>
<rect x="1763" y="1158.83" width="847.738" height="861.718" transform="rotate(-28.3711 1763 1158.83)" fill="black"/>
<g filter="url(#filter0_f_155_279)">
<path fill-rule="evenodd" clip-rule="evenodd" d="M2803.29 3130.05L2014.35 2997L1879.11 3798.95L2668.05 3932L2803.29 3130.05ZM2714.4 3194.01L2077.83 3086.66L1968.71 3733.72L2605.28 3841.08L2714.4 3194.01Z" fill="#803CE0"/>
</g>
<rect y="4254.27" width="664.33" height="675.285" transform="rotate(-17.0291 0 4254.27)" fill="#C3BC14"/>
</g>
<defs>
<filter id="filter0_f_155_279" x="1848.11" y="2966" width="986.184" height="997" filterUnits="userSpaceOnUse" color-interpolation-filters="sRGB">
<feFlood flood-opacity="0" result="BackgroundImageFix"/>
<feBlend mode="normal" in="SourceGraphic" in2="BackgroundImageFix" result="shape"/>
<feGaussianBlur stdDeviation="15.5" result="effect1_foregroundBlur_155_279"/>
</filter>
<linearGradient id="paint0_linear_155_279" x1="1336" y1="-3.00558e-06" x2="1118.13" y2="7678.8" gradientUnits="userSpaceOnUse">
<stop stop-color="#704E7D"/>
<stop offset="1" stop-color="#595252" stop-opacity="0"/>
</linearGradient>
<linearGradient id="paint1_linear_155_279" x1="1108.5" y1="-517" x2="1108.5" y2="6511" gradientUnits="userSpaceOnUse">
<stop offset="0.565625"/>
</linearGradient>
<radialGradient id="paint2_radial_155_279" cx="0" cy="0" r="1" gradientUnits="userSpaceOnUse" gradientTransform="translate(179.5 1246.5) rotate(89.9909) scale(3138)">
<stop offset="0.0239582" stop-color="#1E011D"/>
<stop offset="0.472288" stop-color="#1D021C" stop-opacity="0.75"/>
<stop offset="1" stop-opacity="0"/>
</radialGradient>
<radialGradient id="paint3_radial_155_279" cx="0" cy="0" r="1" gradientUnits="userSpaceOnUse" gradientTransform="translate(2159.65 5016.64) rotate(170.805) scale(2633)">
<stop offset="0.0239582" stop-color="#23445D"/>
<stop offset="0.404167" stop-color="#264278" stop-opacity="0.75"/>
<stop offset="1" stop-opacity="0.3"/>
</radialGradient>
<radialGradient id="paint4_radial_155_279" cx="0" cy="0" r="1" gradientUnits="userSpaceOnUse" gradientTransform="translate(2313.5 2378) rotate(90) scale(1041 965.5)">
<stop stop-color="#E68009"/>
<stop offset="1" stop-color="#E6B509" stop-opacity="0"/>
</radialGradient>
<radialGradient id="paint5_radial_155_279" cx="0" cy="0" r="1" gradientUnits="userSpaceOnUse" gradientTransform="translate(47.0002 4006) rotate(-128.645) scale(2749.73 2663.82)">
<stop stop-color="#505050"/>
<stop offset="1" stop-color="#D9D9D9" stop-opacity="0"/>
</radialGradient>
</defs>
</svg>
