<svg width="1440" height="414" viewBox="0 0 1440 414" fill="none" xmlns="http://www.w3.org/2000/svg">
<path fill-rule="evenodd" clip-rule="evenodd" d="M1440 0H0V414H1440V0ZM1421 22H20V392H1421V22Z" fill="white"/>
<path fill-rule="evenodd" clip-rule="evenodd" d="M1368 71H73V342.4H1368V71ZM1350.91 85.4229H90.9852V327.978H1350.91V85.4229Z" fill="white"/>
<path d="M1424.53 2L1441.62 20.2425L1363.41 83L1353.91 74L1424.53 2Z" fill="white"/>
<path d="M1422.53 411.141L1439.62 392.898L1361.41 330.141L1351.91 339.141L1422.53 411.141Z" fill="white"/>
<path d="M16.0938 2L-1.00047 20.2425L77.2129 83L86.7129 74L16.0938 2Z" fill="white"/>
<path d="M17.0938 411.141L-0.000470221 392.898L78.2129 330.141L87.7129 339.141L17.0938 411.141Z" fill="white"/>
<rect x="90" y="83" width="1261" height="248" fill="white" fill-opacity="0.64"/>
</svg>
