<svg width="112" height="24" viewBox="0 0 112 24" fill="none" xmlns="http://www.w3.org/2000/svg">
<path d="M0.565906 0.599998H4.08591V23H0.565906V0.599998ZM6.72216 0.599998H11.1382L14.5622 14.008H14.6262V0.599998H17.7622V23H14.1462L9.92216 6.648H9.85816V23H6.72216V0.599998ZM20.3784 0.599998H24.7944L28.2184 14.008H28.2824V0.599998H31.4184V23H27.8024L23.5784 6.648H23.5144V23H20.3784V0.599998ZM39.1227 23.32C37.3947 23.32 36.072 22.8293 35.1547 21.848C34.2373 20.8667 33.7787 19.48 33.7787 17.688V5.912C33.7787 4.12 34.2373 2.73333 35.1547 1.752C36.072 0.770665 37.3947 0.279999 39.1227 0.279999C40.8507 0.279999 42.1733 0.770665 43.0907 1.752C44.008 2.73333 44.4667 4.12 44.4667 5.912V17.688C44.4667 19.48 44.008 20.8667 43.0907 21.848C42.1733 22.8293 40.8507 23.32 39.1227 23.32ZM39.1227 20.12C40.3387 20.12 40.9467 19.384 40.9467 17.912V5.688C40.9467 4.216 40.3387 3.48 39.1227 3.48C37.9067 3.48 37.2987 4.216 37.2987 5.688V17.912C37.2987 19.384 37.9067 20.12 39.1227 20.12ZM45.8567 0.599998H49.4087L51.7127 17.976H51.7767L54.0807 0.599998H57.3127L53.9207 23H49.2487L45.8567 0.599998ZM60.8172 0.599998H65.5852L69.2332 23H65.7132L65.0732 18.552V18.616H61.0732L60.4332 23H57.1692L60.8172 0.599998ZM64.6572 15.576L63.0892 4.504H63.0252L61.4892 15.576H64.6572ZM72.2242 3.8H68.5442V0.599998H79.4242V3.8H75.7442V23H72.2242V3.8ZM81.1284 0.599998H84.6484V23H81.1284V0.599998ZM92.3727 23.32C90.6447 23.32 89.322 22.8293 88.4047 21.848C87.4873 20.8667 87.0287 19.48 87.0287 17.688V5.912C87.0287 4.12 87.4873 2.73333 88.4047 1.752C89.322 0.770665 90.6447 0.279999 92.3727 0.279999C94.1007 0.279999 95.4233 0.770665 96.3407 1.752C97.258 2.73333 97.7167 4.12 97.7167 5.912V17.688C97.7167 19.48 97.258 20.8667 96.3407 21.848C95.4233 22.8293 94.1007 23.32 92.3727 23.32ZM92.3727 20.12C93.5887 20.12 94.1967 19.384 94.1967 17.912V5.688C94.1967 4.216 93.5887 3.48 92.3727 3.48C91.1567 3.48 90.5487 4.216 90.5487 5.688V17.912C90.5487 19.384 91.1567 20.12 92.3727 20.12ZM100.097 0.599998H104.513L107.937 14.008H108.001V0.599998H111.137V23H107.521L103.297 6.648H103.233V23H100.097V0.599998Z" fill="url(#paint0_linear_177_221)"/>
<defs>
<linearGradient id="paint0_linear_177_221" x1="55.8477" y1="-6" x2="55.8477" y2="32" gradientUnits="userSpaceOnUse">
<stop stop-color="white"/>
<stop offset="1" stop-color="#A38DB5" stop-opacity="0.42"/>
</linearGradient>
</defs>
</svg>
