<svg width="731" height="336" viewBox="0 0 731 336" fill="none" xmlns="http://www.w3.org/2000/svg">
<mask id="mask0_133_1212" style="mask-type:alpha" maskUnits="userSpaceOnUse" x="0" y="0" width="731" height="336">
<rect width="731" height="336" fill="#D9D9D9"/>
</mask>
<g mask="url(#mask0_133_1212)">
<mask id="mask1_133_1212" style="mask-type:alpha" maskUnits="userSpaceOnUse" x="49" y="16" width="789" height="275">
<path d="M834.382 29.9738L824.307 71.4254L710.44 114.125L684.206 114.246L653.98 114.385L620.348 118.14L568.487 126.35L513.802 140.489L460.864 162.592L415.959 195.203L408.567 200.123L397.795 214.06L391.033 231.836L374.57 248.371L362.616 253.312L356.938 258.739L347.232 256.469L352.39 261.846L335.293 264.754L327.9 269.16L323.322 265.837L315.908 265.871L315.948 274.615L308.534 274.649L298.296 280.611L289.714 274.736L286.299 276.294L286.326 282.209L246.431 288.051L246.398 280.85L240.125 280.879L235.585 285.786L227.041 288.14L208.791 288.223L202.507 285.938L202.485 281.052L192.778 278.524L187.075 278.551L177.391 281.167L168.266 281.209L156.848 278.689L156.833 275.346L147.138 275.391L143.691 270.006L133.426 270.053L123.731 270.098L123.711 265.726L116.284 262.931L110.01 262.96L116.269 259.845L109.985 257.559L99.72 257.606L97.4293 255.56L93.4241 252.749L89.432 252.767L89.4178 249.681L93.3993 247.348L89.4001 245.824L81.9862 245.858L77.4083 242.536C77.4119 243.307 76.7325 244.39 73.9865 242.551C71.2405 240.712 67.8871 239.065 66.5537 238.471L73.9558 235.865L80.2232 234.55L81.9212 231.713L82.4856 230.425L77.3528 230.449L73.9203 228.15L66.5064 228.184L61.3843 230.522L56.2409 228.231L56.2255 224.888L56.2125 222.059L61.3347 219.721L61.324 217.406L56.1913 217.43L52.7612 215.645L52.7411 211.273L52.7293 208.702L61.2839 208.662L61.2732 206.348L56.131 204.314L52.7092 204.33L49.8423 201L52.6832 198.672L56.105 198.656L56.0967 196.856L49.814 194.828L49.7963 190.97L49.7844 188.398L52.6289 186.842L61.1834 186.803L61.1681 183.46L52.6064 181.956L52.584 177.07L55.9975 175.254L66.263 175.207L66.25 172.378L61.1102 170.858L61.0913 166.744L66.2063 162.863L73.6273 164.372L79.9007 164.343L81.6045 162.792L77.0338 161.013L73.606 159.742L77.0208 158.184L79.8617 155.856L82.1358 154.303L92.9787 155.796L92.9716 154.253L92.9586 151.424L88.9664 151.442L88.9523 148.356L92.9444 148.338L99.2178 148.309L109.483 148.262L106.045 144.677L102.048 143.667L106.034 142.363L115.711 138.203L123.124 138.169L127.106 135.837L132.8 133.753L137.362 133.732L137.351 131.417L148.753 130.336L148.743 128.279L162.994 126.67L170.978 126.634L176.666 123.264L185.226 124.511L188.066 121.926L197.761 121.882L201.765 124.435L208.038 124.406L208.027 121.834L218.868 123.07L222.876 126.395L229.153 127.138L234.852 126.34L249.117 127.818L253.693 130.883L253.704 133.197L261.678 130.846L267.962 133.132L267.971 135.189L270.268 138.522L279.963 138.477L285.666 138.451L289.102 141.522L285.698 145.395L294.262 147.413L297.698 150.483L297.718 154.855L307.983 154.808L308.001 158.666L303.46 163.316L315.447 165.575L315.466 169.69L308.072 174.096L315.494 175.862L303.54 180.803L315.524 182.291L311.554 187.196L303.57 187.232L297.879 189.83L303.599 193.662L294.475 193.704L289.36 197.585L294.503 199.876L294.518 203.219L280.249 200.713L283.698 206.612L276.859 207.672L268.294 205.397L268.316 210.283L262.052 212.369L254.059 210.348L249.516 214.741L239.821 214.786L239.81 212.471L229.545 212.519L229.564 216.633L226.712 216.646L223.282 214.862L223.272 212.547L215.858 212.581L212.465 219.026L202.189 216.759L205.017 211.603L198.169 210.605L198.178 212.663L190.199 213.728L185.627 211.692L186.746 207.057L177.051 207.102L171.353 208.157L171.342 205.842L174.179 202.743L167.899 201.229L159.926 203.837L156.493 201.281L159.9 198.18L149.056 196.429L149.047 194.372L146.748 190.525L140.468 189.01L143.307 186.426L146.721 184.61L137.589 183.109L137.582 181.566L146.696 179.209L146.684 176.637L143.254 174.853L152.379 174.811L152.366 171.982L147.213 167.634L152.34 166.324L163.182 167.561L167.72 162.396L167.706 159.31L176.845 162.354L185.407 163.858L185.424 167.458L176.889 171.87L174.051 174.712L176.933 181.385L179.803 185.486L185.517 187.775L190.091 190.326L194.094 192.622L202.085 194.128L208.368 196.157L219.204 196.107L226.618 196.073L235.172 196.033L243.717 193.937L249.413 192.368L253.958 188.489L261.931 185.881L261.908 180.994L261.886 176.108L261.857 169.936L253.844 163.544L243.557 158.962L239.547 155.122L226.43 155.183L212.165 153.705L188.212 153.815L171.11 155.437L147.19 162.491L127.286 174.926L123.347 186.517L123.422 202.976L133.163 212.961L140.618 221.671L156.615 227.77L174.323 234.118L202.296 239.904L226.819 239.792L249.621 237.629L270.699 232.389L286.065 225.375L298.011 218.633L308.242 211.128L315.615 202.093L322.99 193.573L327.516 185.579L338.306 175.757L342.29 173.939L362.162 154.559L381.452 132.611L415.557 107.765L453.099 86.2469L509.475 67.7284L568.161 55.3715L634.247 39.8945L702.66 34.4367L773.919 27.9371L834.382 29.9738Z" fill="white"/>
<ellipse cx="719.369" cy="71.393" rx="29.0858" ry="13.1158" transform="rotate(179.737 719.369 71.393)" fill="#D9D9D9"/>
<ellipse cx="717.811" cy="71.4004" rx="16.1011" ry="7.96317" transform="rotate(179.737 717.811 71.4004)" fill="white"/>
<ellipse cx="656.086" cy="76.0562" rx="25.0937" ry="11.3156" transform="rotate(179.737 656.086 76.0562)" fill="#D9D9D9"/>
<ellipse cx="654.742" cy="76.0619" rx="13.8911" ry="6.87019" transform="rotate(179.737 654.742 76.0619)" fill="white"/>
<ellipse cx="655.904" cy="36.4517" rx="25.0937" ry="11.3156" transform="rotate(179.737 655.904 36.4517)" fill="#D9D9D9"/>
<ellipse cx="654.56" cy="36.4574" rx="13.8911" ry="6.87019" transform="rotate(179.737 654.56 36.4574)" fill="white"/>
<ellipse cx="596.815" cy="85.0728" rx="25.0937" ry="11.3156" transform="rotate(179.737 596.815 85.0728)" fill="#D9D9D9"/>
<ellipse cx="595.471" cy="85.078" rx="13.8911" ry="6.87019" transform="rotate(179.737 595.471 85.078)" fill="white"/>
<ellipse cx="595.504" cy="48.0449" rx="25.0937" ry="11.3156" transform="rotate(179.737 595.504 48.0449)" fill="#D9D9D9"/>
<ellipse cx="594.159" cy="48.0516" rx="13.8911" ry="6.87019" transform="rotate(179.737 594.159 48.0516)" fill="white"/>
<ellipse cx="546.691" cy="99.1904" rx="25.0937" ry="11.3156" transform="rotate(179.737 546.691 99.1904)" fill="#D9D9D9"/>
<ellipse cx="545.347" cy="99.1962" rx="13.8911" ry="6.87019" transform="rotate(179.737 545.347 99.1962)" fill="white"/>
<ellipse cx="496.569" cy="113.822" rx="25.0937" ry="11.3156" transform="rotate(179.737 496.569 113.822)" fill="#D9D9D9"/>
<ellipse cx="495.225" cy="113.828" rx="13.8911" ry="6.87019" transform="rotate(179.737 495.225 113.828)" fill="white"/>
<ellipse cx="468.456" cy="76.6611" rx="23.3827" ry="10.5441" transform="rotate(179.737 468.456 76.6611)" fill="#D9D9D9"/>
<ellipse cx="467.203" cy="76.6666" rx="12.944" ry="6.40177" transform="rotate(179.737 467.203 76.6666)" fill="white"/>
<ellipse cx="459.581" cy="131.224" rx="23.3827" ry="10.5441" transform="rotate(179.737 459.581 131.224)" fill="#D9D9D9"/>
<ellipse cx="458.328" cy="131.229" rx="12.944" ry="6.40177" transform="rotate(179.737 458.328 131.229)" fill="white"/>
<ellipse cx="422.931" cy="98.9868" rx="23.3827" ry="10.5441" transform="rotate(179.737 422.931 98.9868)" fill="#D9D9D9"/>
<ellipse cx="421.679" cy="98.9922" rx="12.944" ry="6.40177" transform="rotate(179.737 421.679 98.9922)" fill="white"/>
<ellipse cx="446.561" cy="153.143" rx="18.2499" ry="8.74387" transform="rotate(179.737 446.561 153.143)" fill="#D9D9D9"/>
<ellipse cx="445.583" cy="153.147" rx="10.1026" ry="5.30878" transform="rotate(179.737 445.583 153.147)" fill="white"/>
<ellipse cx="418.128" cy="170.761" rx="18.2499" ry="8.74387" transform="rotate(179.737 418.128 170.761)" fill="#D9D9D9"/>
<ellipse cx="417.151" cy="170.766" rx="10.1026" ry="5.30878" transform="rotate(179.737 417.151 170.766)" fill="white"/>
<ellipse cx="403.184" cy="189.347" rx="15.0294" ry="7.20084" transform="rotate(179.737 403.184 189.347)" fill="#D9D9D9"/>
<ellipse cx="402.378" cy="189.35" rx="8.31982" ry="4.37194" transform="rotate(179.737 402.378 189.35)" fill="white"/>
<ellipse cx="348.435" cy="189.598" rx="15.0294" ry="7.20084" transform="rotate(179.737 348.435 189.598)" fill="#D9D9D9"/>
<ellipse cx="347.629" cy="189.602" rx="8.31982" ry="4.37194" transform="rotate(179.737 347.629 189.602)" fill="white"/>
<ellipse cx="395.817" cy="207.125" rx="14.4926" ry="6.94367" transform="rotate(179.737 395.817 207.125)" fill="#D9D9D9"/>
<ellipse cx="395.04" cy="207.129" rx="8.02269" ry="4.2158" transform="rotate(179.737 395.04 207.129)" fill="white"/>
<ellipse cx="341.622" cy="225.634" rx="12.8823" ry="6.17215" transform="rotate(179.737 341.622 225.634)" fill="#D9D9D9"/>
<ellipse cx="340.932" cy="225.637" rx="7.13128" ry="3.74738" transform="rotate(179.737 340.932 225.637)" fill="white"/>
<ellipse cx="397.499" cy="222.806" rx="12.8823" ry="6.17215" transform="rotate(179.737 397.499 222.806)" fill="#D9D9D9"/>
<ellipse cx="396.81" cy="222.809" rx="7.13128" ry="3.74738" transform="rotate(179.737 396.81 222.809)" fill="white"/>
<ellipse cx="390.737" cy="240.325" rx="12.8823" ry="6.17215" transform="rotate(179.737 390.737 240.325)" fill="#D9D9D9"/>
<ellipse cx="390.047" cy="240.328" rx="7.13128" ry="3.74738" transform="rotate(179.737 390.047 240.328)" fill="white"/>
<ellipse cx="335.997" cy="242.634" rx="12.8823" ry="6.17215" transform="rotate(179.737 335.997 242.634)" fill="#D9D9D9"/>
<ellipse cx="335.308" cy="242.637" rx="7.13128" ry="3.74738" transform="rotate(179.737 335.308 242.637)" fill="white"/>
<ellipse cx="324.42" cy="256.526" rx="10.8359" ry="5.19168" transform="rotate(179.737 324.42 256.526)" fill="#D9D9D9"/>
<ellipse cx="323.839" cy="256.528" rx="5.99844" ry="3.15209" transform="rotate(179.737 323.839 256.528)" fill="white"/>
<ellipse cx="6.25772" cy="11.0363" rx="6.25772" ry="11.0363" transform="matrix(-0.944683 -0.327984 0.86381 -0.503818 366.355 263.068)" fill="#D9D9D9"/>
<ellipse cx="1.93824" cy="6.70058" rx="1.93824" ry="6.70058" transform="matrix(-0.944683 -0.327984 0.86381 -0.503818 367.145 259.858)" fill="white"/>
<ellipse cx="5.42018" cy="12.7991" rx="5.42018" ry="12.7991" transform="matrix(-0.878458 -0.47782 0.936325 -0.351134 334.138 274.018)" fill="#D9D9D9"/>
<ellipse cx="1.67883" cy="7.7709" rx="1.67883" ry="7.7709" transform="matrix(-0.878458 -0.47782 0.936325 -0.351134 336.466 270.958)" fill="white"/>
<ellipse cx="5.07374" cy="11.9811" rx="5.07374" ry="11.9811" transform="matrix(-0.878458 -0.47782 0.936325 -0.351134 304.929 285.467)" fill="#D9D9D9"/>
<ellipse cx="1.57152" cy="7.27421" rx="1.57152" ry="7.27421" transform="matrix(-0.878458 -0.47782 0.936325 -0.351134 307.109 282.603)" fill="white"/>
<ellipse cx="2.61797" cy="17.9198" rx="2.61797" ry="17.9198" transform="matrix(-0.699418 -0.714713 0.980212 -0.197951 252.349 292.021)" fill="#D9D9D9"/>
<ellipse cx="0.81088" cy="10.8799" rx="0.81088" ry="10.8799" transform="matrix(-0.699418 -0.714713 0.980212 -0.197951 258.333 289.691)" fill="white"/>
<ellipse cx="309.622" cy="270.53" rx="8.5882" ry="4.11477" transform="rotate(179.737 309.622 270.53)" fill="#D9D9D9"/>
<ellipse cx="309.162" cy="270.532" rx="4.75418" ry="2.49825" transform="rotate(179.737 309.162 270.532)" fill="white"/>
<ellipse cx="341.074" cy="208.405" rx="14.4926" ry="6.94367" transform="rotate(179.737 341.074 208.405)" fill="#D9D9D9"/>
<ellipse cx="340.297" cy="208.409" rx="8.02269" ry="4.2158" transform="rotate(179.737 340.297 208.409)" fill="white"/>
<ellipse cx="354.236" cy="167.454" rx="18.2499" ry="8.74387" transform="rotate(179.737 354.236 167.454)" fill="#D9D9D9"/>
<ellipse cx="353.258" cy="167.458" rx="10.1026" ry="5.30878" transform="rotate(179.737 353.258 167.458)" fill="white"/>
<ellipse cx="387.678" cy="121.78" rx="21.1015" ry="9.51539" transform="rotate(179.737 387.678 121.78)" fill="#D9D9D9"/>
<ellipse cx="386.548" cy="121.786" rx="11.6812" ry="5.7772" transform="rotate(179.737 386.548 121.786)" fill="white"/>
<ellipse cx="367.248" cy="144.505" rx="21.1015" ry="9.51539" transform="rotate(179.737 367.248 144.505)" fill="#D9D9D9"/>
<ellipse cx="366.118" cy="144.511" rx="11.6812" ry="5.7772" transform="rotate(179.737 366.118 144.511)" fill="white"/>
<ellipse cx="531.12" cy="61.4565" rx="23.3827" ry="10.5441" transform="rotate(179.737 531.12 61.4565)" fill="#D9D9D9"/>
<ellipse cx="529.867" cy="61.4625" rx="12.944" ry="6.40177" transform="rotate(179.737 529.867 61.4625)" fill="white"/>
<ellipse cx="734.019" cy="32.7499" rx="29.0858" ry="13.1158" transform="rotate(179.737 734.019 32.7499)" fill="#D9D9D9"/>
<ellipse cx="732.461" cy="32.7569" rx="16.1011" ry="7.96317" transform="rotate(179.737 732.461 32.7569)" fill="white"/>
</mask>
<g mask="url(#mask1_133_1212)">
<path d="M787 128.5L283.5 275.5L303.5 214L327.5 171.5L405.001 50.5003L862 1.00006L787 128.5Z" fill="url(#paint0_linear_133_1212)"/>
</g>
<mask id="mask2_133_1212" style="mask-type:alpha" maskUnits="userSpaceOnUse" x="49" y="27" width="786" height="262">
<path d="M834.382 29.9738L824.307 71.4254L710.44 114.125L684.206 114.246L653.98 114.385L620.348 118.14L568.487 126.35L513.802 140.489L460.864 162.592L415.959 195.203L408.567 200.123L397.795 214.06L391.033 231.836L374.57 248.371L362.616 253.312L356.938 258.739L347.232 256.469L352.39 261.846L335.293 264.754L327.9 269.16L323.322 265.837L315.908 265.871L315.948 274.615L308.534 274.649L298.296 280.611L289.714 274.736L286.299 276.294L286.326 282.209L246.431 288.051L246.398 280.85L240.125 280.879L235.585 285.786L227.041 288.14L208.791 288.223L202.507 285.938L202.485 281.052L192.778 278.524L187.075 278.551L177.391 281.167L168.266 281.209L156.848 278.689L156.833 275.346L147.138 275.391L143.691 270.006L133.426 270.053L123.731 270.098L123.711 265.726L116.284 262.931L110.01 262.96L116.269 259.845L109.985 257.559L99.72 257.606L97.4293 255.56L93.4241 252.749L89.432 252.767L89.4178 249.681L93.3993 247.348L89.4001 245.824L81.9862 245.858L77.4083 242.536C77.4119 243.307 76.7325 244.39 73.9865 242.551C71.2405 240.712 67.8872 239.065 66.5537 238.471L73.9558 235.865L80.2232 234.55L81.9212 231.713L82.4856 230.425L77.3528 230.449L73.9203 228.15L66.5064 228.184L61.3843 230.522L56.2409 228.231L56.2255 224.888L56.2125 222.059L61.3347 219.721L61.324 217.406L56.1913 217.43L52.7612 215.645L52.7411 211.273L52.7293 208.702L61.2839 208.662L61.2732 206.348L56.131 204.314L52.7092 204.33L49.8423 201L52.6832 198.672L56.105 198.656L56.0967 196.856L49.814 194.828L49.7963 190.97L49.7844 188.398L52.6289 186.842L61.1834 186.803L61.1681 183.46L52.6064 181.956L52.584 177.07L55.9975 175.254L66.263 175.207L66.25 172.378L61.1102 170.858L61.0913 166.744L66.2063 162.863L73.6273 164.372L79.9007 164.343L81.6045 162.792L77.0338 161.013L73.606 159.742L77.0208 158.184L79.8617 155.856L82.1358 154.303L92.9787 155.796L92.9716 154.253L92.9586 151.424L88.9664 151.442L88.9523 148.356L92.9444 148.338L99.2178 148.309L109.483 148.262L106.045 144.677L102.048 143.667L106.034 142.363L115.711 138.203L123.124 138.169L127.106 135.837L132.8 133.753L137.362 133.732L137.351 131.417L148.753 130.336L148.743 128.279L162.994 126.67L170.978 126.634L176.666 123.264L185.226 124.511L188.066 121.926L197.761 121.882L201.765 124.435L208.038 124.406L208.027 121.834L218.868 123.07L222.876 126.395L229.153 127.138L234.852 126.34L249.117 127.818L253.693 130.883L253.704 133.197L261.678 130.846L267.962 133.132L267.971 135.189L270.268 138.522L279.963 138.477L285.666 138.451L289.102 141.522L285.698 145.395L294.262 147.413L297.698 150.483L297.718 154.855L307.983 154.808L308.001 158.666L303.46 163.316L315.447 165.575L315.466 169.69L308.072 174.096L315.494 175.862L303.54 180.803L315.524 182.291L311.554 187.196L303.57 187.232L297.879 189.83L303.599 193.662L294.475 193.704L289.36 197.585L294.503 199.876L294.518 203.219L280.249 200.713L283.698 206.612L276.859 207.672L268.294 205.397L268.316 210.283L262.052 212.369L254.059 210.348L249.516 214.741L239.821 214.786L239.81 212.471L229.545 212.519L229.564 216.633L226.712 216.646L223.282 214.862L223.272 212.547L215.858 212.581L212.465 219.026L202.189 216.759L205.017 211.603L198.169 210.605L198.178 212.663L190.199 213.728L185.627 211.692L186.746 207.057L177.051 207.102L171.353 208.157L171.342 205.842L174.179 202.743L167.899 201.229L159.926 203.837L156.493 201.281L159.9 198.18L149.056 196.429L149.047 194.372L146.748 190.525L140.468 189.01L143.307 186.426L146.721 184.61L137.589 183.109L137.582 181.566L146.696 179.209L146.684 176.637L143.254 174.853L152.379 174.811L152.366 171.982L147.213 167.634L152.34 166.324L163.182 167.561L167.72 162.396L167.706 159.31L176.845 162.354L185.407 163.858L185.424 167.458L176.889 171.87L174.051 174.712L176.933 181.385L179.803 185.486L185.517 187.775L190.091 190.326L194.094 192.622L202.085 194.128L208.368 196.157L219.204 196.107L226.618 196.073L235.172 196.033L243.717 193.937L249.413 192.368L253.958 188.489L261.931 185.881L261.908 180.994L261.886 176.108L261.857 169.936L253.844 163.544L243.557 158.962L239.547 155.122L226.43 155.183L212.165 153.705L188.212 153.815L171.11 155.437L147.19 162.491L127.286 174.926L123.347 186.517L123.422 202.976L133.163 212.961L140.618 221.671L156.615 227.77L174.323 234.118L202.296 239.904L226.819 239.792L249.621 237.629L270.699 232.389L286.065 225.375L298.011 218.633L308.242 211.128L315.615 202.093L322.99 193.573L327.516 185.579L338.306 175.757L342.29 173.939L362.162 154.559L381.452 132.611L415.557 107.765L453.099 86.2469L509.475 67.7284L568.161 55.3715L634.247 39.8945L702.66 34.4367L773.919 27.9371L834.382 29.9738Z" fill="white"/>
</mask>
<g mask="url(#mask2_133_1212)">
<path d="M264.429 233.329L284.587 276.185L313.594 259.078L333.449 235.841L333.375 219.896L337.17 176.93L284.291 211.892L264.429 233.329Z" fill="url(#paint1_linear_133_1212)" stroke="url(#paint2_linear_133_1212)"/>
</g>
<path d="M824.295 68.8541L834.371 27.4025L773.908 25.3658L702.648 31.8654L634.235 37.3232L568.15 52.8002L509.464 65.1571L453.087 83.6756L415.545 105.194L381.441 130.039L362.151 151.988L342.279 171.367L338.295 173.186M824.295 68.8541L710.428 111.554L684.194 111.675L653.968 111.813L620.337 115.568L568.476 123.779L513.79 137.918L460.852 160.021L415.947 192.631M824.295 68.8541L759.851 69.1502L695.999 74.3299L638.409 76.9091L595.093 83.0231L542.116 96.6397L498.275 112.529L453.308 131.766L434.02 153.972L420.968 168.177L415.947 192.631M415.947 192.631L408.556 197.552L397.784 211.489L391.022 229.265L374.558 245.8L362.604 250.741L356.926 256.168L347.22 253.898L352.378 259.275L335.282 262.182L327.888 266.588L323.31 263.266L315.896 263.3L315.936 272.044L308.522 272.078L298.284 278.04L289.702 272.164L286.288 273.723M286.288 273.723L286.315 279.638L246.419 285.479L246.386 278.278L240.113 278.307L235.573 283.215L227.029 285.568L208.779 285.652L202.495 283.366L202.473 278.48L192.766 275.953L187.063 275.979L177.38 278.596L168.255 278.637L156.837 276.118L156.821 272.775L147.126 272.82L143.68 267.435L133.414 267.482L123.719 267.526L123.699 263.154L116.272 260.36L109.999 260.389L116.258 257.274L109.974 254.988L99.7082 255.035L97.4176 252.988L93.4124 250.178L89.4203 250.196L89.4061 247.11L93.3876 244.777L89.3884 243.252L81.9744 243.287L77.3966 239.964C77.4002 240.736 76.7208 241.819 73.9748 239.98C71.2288 238.141 67.8754 236.493 66.5419 235.899L73.9441 233.294L80.2115 231.979L81.9094 229.142L82.4738 227.854L77.3411 227.877L73.9086 225.578L66.4947 225.613L61.3726 227.951L56.2292 225.66L56.2138 222.316L56.2008 219.488L61.3229 217.149L61.3123 214.835L56.1796 214.859L52.7495 213.074L52.7294 208.702L52.7176 206.13L61.2721 206.091L61.2615 203.777L56.1193 201.743L52.6975 201.759L49.8306 198.428L52.6715 196.101L56.0933 196.085L56.085 194.285L49.8022 192.256L49.7845 188.399L49.7727 185.827L52.6171 184.271L61.1717 184.232L61.1563 180.888L52.5947 179.385L52.5722 174.499L55.9858 172.683L66.2513 172.635L66.2383 169.807L61.0984 168.287L61.0795 164.172L66.1946 160.291L73.6156 161.8L79.889 161.771L81.5928 160.221L77.0221 158.441L73.5943 157.171L77.0091 155.612L79.85 153.285L82.1241 151.731L92.967 153.225L92.9599 151.682L92.9469 148.853L88.9547 148.871L88.9406 145.785L92.9327 145.767L99.206 145.738L109.472 145.691L106.033 142.106L102.036 141.096L106.023 139.791L115.699 135.632L123.113 135.598L127.094 133.265L132.788 131.182L137.35 131.161L137.34 128.846L148.741 127.765L148.732 125.708L162.982 124.099L170.966 124.063L176.654 120.693L185.214 121.94L188.054 119.355L197.749 119.31L201.753 121.864L208.027 121.835L208.015 119.263L218.857 120.499L222.864 123.824L229.141 124.567L234.84 123.769L249.105 125.247L253.682 128.312L253.692 130.626L261.666 128.275L267.95 130.561L267.959 132.618L270.256 135.951L279.951 135.906L285.654 135.88L289.09 138.95L285.686 142.824L294.25 144.842L297.686 147.912L297.706 152.284L307.972 152.237L307.989 156.094L303.448 160.744L315.435 163.004L315.454 167.118L308.06 171.524L315.483 173.291L303.529 178.232L315.512 179.72L311.542 184.624L303.558 184.661L297.867 187.259L303.588 191.09L294.463 191.132L289.348 195.013L294.491 197.304L294.507 200.648L280.237 198.141L283.686 204.041L276.847 205.101L268.282 202.825L268.304 207.712L262.041 209.798L254.047 207.777L249.505 212.17L239.809 212.215L239.799 209.9L229.533 209.947L229.552 214.062L226.701 214.075L223.271 212.291L223.26 209.976L215.846 210.01L212.454 216.455L202.178 214.188L205.005 209.031L198.157 208.034L198.166 210.091L190.187 211.157L185.615 209.12L186.734 204.486L177.039 204.531L171.341 205.585L171.33 203.271L174.168 200.172L167.887 198.658L159.915 201.266L156.481 198.71L159.889 195.608L149.045 193.858L149.035 191.8L146.736 187.953L140.456 186.439L143.296 183.854L146.709 182.038L137.577 180.537L137.57 178.994L146.684 176.638L146.672 174.066L143.242 172.282L152.367 172.24L152.354 169.411L147.201 165.063L152.328 163.753L163.17 164.989L167.709 159.825L167.695 156.739L176.834 159.783L185.395 161.287L185.412 164.887L176.877 169.298L174.039 172.14L176.921 178.814L179.791 182.915L185.505 185.203L190.079 187.754L194.082 190.05L202.074 191.557L208.356 193.585L219.192 193.536L226.606 193.501L235.161 193.462L243.706 191.365L249.402 189.796L253.946 185.918L261.919 183.309L261.896 178.423L261.874 173.537L261.846 167.365L253.832 160.972L243.545 156.39L239.535 152.551L226.418 152.611L212.154 151.134L188.201 151.244L171.099 152.866L147.178 159.919L127.274 172.355L123.335 183.946L123.411 200.405L133.152 210.39L140.606 219.1L156.603 225.199L174.312 231.547L202.284 237.333L226.807 237.22L249.61 235.058L270.687 229.818L286.054 222.803L297.999 216.062L308.231 208.557L315.603 199.522L322.978 191.001L327.504 183.008L338.295 173.186M286.288 273.723L315.864 256.357L327.776 242.157L335.132 229.522L335.05 211.777L338.386 192.988L338.295 173.186" stroke="url(#paint3_linear_133_1212)" stroke-width="4"/>
<ellipse cx="719.357" cy="68.8222" rx="29.0858" ry="13.1158" transform="rotate(179.737 719.357 68.8222)" fill="#D9D9D9"/>
<ellipse cx="717.799" cy="68.8296" rx="16.1011" ry="7.96317" transform="rotate(179.737 717.799 68.8296)" fill="url(#paint4_linear_133_1212)"/>
<ellipse cx="656.074" cy="73.4849" rx="25.0937" ry="11.3156" transform="rotate(179.737 656.074 73.4849)" fill="#D9D9D9"/>
<ellipse cx="654.73" cy="73.4906" rx="13.8911" ry="6.87019" transform="rotate(179.737 654.73 73.4906)" fill="url(#paint5_linear_133_1212)"/>
<ellipse cx="655.893" cy="33.8804" rx="25.0937" ry="11.3156" transform="rotate(179.737 655.893 33.8804)" fill="#D9D9D9"/>
<ellipse cx="654.548" cy="33.8861" rx="13.8911" ry="6.87019" transform="rotate(179.737 654.548 33.8861)" fill="url(#paint6_linear_133_1212)"/>
<ellipse cx="596.803" cy="82.501" rx="25.0937" ry="11.3156" transform="rotate(179.737 596.803 82.501)" fill="#D9D9D9"/>
<ellipse cx="595.459" cy="82.5067" rx="13.8911" ry="6.87019" transform="rotate(179.737 595.459 82.5067)" fill="url(#paint7_linear_133_1212)"/>
<ellipse cx="595.492" cy="45.4741" rx="25.0937" ry="11.3156" transform="rotate(179.737 595.492 45.4741)" fill="#D9D9D9"/>
<ellipse cx="594.148" cy="45.4803" rx="13.8911" ry="6.87019" transform="rotate(179.737 594.148 45.4803)" fill="url(#paint8_linear_133_1212)"/>
<ellipse cx="546.679" cy="96.6187" rx="25.0937" ry="11.3156" transform="rotate(179.737 546.679 96.6187)" fill="#D9D9D9"/>
<ellipse cx="545.335" cy="96.6249" rx="13.8911" ry="6.87019" transform="rotate(179.737 545.335 96.6249)" fill="url(#paint9_linear_133_1212)"/>
<ellipse cx="496.557" cy="111.251" rx="25.0937" ry="11.3156" transform="rotate(179.737 496.557 111.251)" fill="#D9D9D9"/>
<ellipse cx="495.213" cy="111.257" rx="13.8911" ry="6.87019" transform="rotate(179.737 495.213 111.257)" fill="url(#paint10_linear_133_1212)"/>
<ellipse cx="468.444" cy="74.0898" rx="23.3827" ry="10.5441" transform="rotate(179.737 468.444 74.0898)" fill="#D9D9D9"/>
<ellipse cx="467.191" cy="74.0948" rx="12.944" ry="6.40177" transform="rotate(179.737 467.191 74.0948)" fill="url(#paint11_linear_133_1212)"/>
<ellipse cx="459.569" cy="128.652" rx="23.3827" ry="10.5441" transform="rotate(179.737 459.569 128.652)" fill="#D9D9D9"/>
<ellipse cx="458.316" cy="128.657" rx="12.944" ry="6.40177" transform="rotate(179.737 458.316 128.657)" fill="url(#paint12_linear_133_1212)"/>
<ellipse cx="422.92" cy="96.4155" rx="23.3827" ry="10.5441" transform="rotate(179.737 422.92 96.4155)" fill="#D9D9D9"/>
<ellipse cx="421.667" cy="96.421" rx="12.944" ry="6.40177" transform="rotate(179.737 421.667 96.421)" fill="url(#paint13_linear_133_1212)"/>
<ellipse cx="446.549" cy="150.572" rx="18.2499" ry="8.74387" transform="rotate(179.737 446.549 150.572)" fill="#D9D9D9"/>
<ellipse cx="445.571" cy="150.576" rx="10.1026" ry="5.30878" transform="rotate(179.737 445.571 150.576)" fill="url(#paint14_linear_133_1212)"/>
<ellipse cx="418.116" cy="168.19" rx="18.2499" ry="8.74387" transform="rotate(179.737 418.116 168.19)" fill="#D9D9D9"/>
<ellipse cx="417.139" cy="168.194" rx="10.1026" ry="5.30878" transform="rotate(179.737 417.139 168.194)" fill="url(#paint15_linear_133_1212)"/>
<ellipse cx="403.172" cy="186.776" rx="15.0294" ry="7.20084" transform="rotate(179.737 403.172 186.776)" fill="#D9D9D9"/>
<ellipse cx="402.367" cy="186.78" rx="8.31982" ry="4.37194" transform="rotate(179.737 402.367 186.78)" fill="url(#paint16_linear_133_1212)"/>
<ellipse cx="348.423" cy="187.027" rx="15.0294" ry="7.20084" transform="rotate(179.737 348.423 187.027)" fill="#D9D9D9"/>
<ellipse cx="347.618" cy="187.032" rx="8.31982" ry="4.37194" transform="rotate(179.737 347.618 187.032)" fill="url(#paint17_linear_133_1212)"/>
<ellipse cx="395.805" cy="204.554" rx="14.4926" ry="6.94367" transform="rotate(179.737 395.805 204.554)" fill="#D9D9D9"/>
<ellipse cx="395.028" cy="204.558" rx="8.02269" ry="4.2158" transform="rotate(179.737 395.028 204.558)" fill="url(#paint18_linear_133_1212)"/>
<ellipse cx="341.61" cy="223.063" rx="12.8823" ry="6.17215" transform="rotate(179.737 341.61 223.063)" fill="#D9D9D9"/>
<ellipse cx="340.92" cy="223.067" rx="7.13128" ry="3.74738" transform="rotate(179.737 340.92 223.067)" fill="url(#paint19_linear_133_1212)"/>
<ellipse cx="397.487" cy="220.234" rx="12.8823" ry="6.17215" transform="rotate(179.737 397.487 220.234)" fill="#D9D9D9"/>
<ellipse cx="396.798" cy="220.238" rx="7.13128" ry="3.74738" transform="rotate(179.737 396.798 220.238)" fill="url(#paint20_linear_133_1212)"/>
<ellipse cx="390.725" cy="237.753" rx="12.8823" ry="6.17215" transform="rotate(179.737 390.725 237.753)" fill="#D9D9D9"/>
<ellipse cx="390.036" cy="237.756" rx="7.13128" ry="3.74738" transform="rotate(179.737 390.036 237.756)" fill="url(#paint21_linear_133_1212)"/>
<ellipse cx="335.985" cy="240.062" rx="12.8823" ry="6.17215" transform="rotate(179.737 335.985 240.062)" fill="#D9D9D9"/>
<ellipse cx="335.296" cy="240.066" rx="7.13128" ry="3.74738" transform="rotate(179.737 335.296 240.066)" fill="url(#paint22_linear_133_1212)"/>
<ellipse cx="324.408" cy="253.954" rx="10.8359" ry="5.19168" transform="rotate(179.737 324.408 253.954)" fill="#D9D9D9"/>
<ellipse cx="323.827" cy="253.957" rx="5.99844" ry="3.15209" transform="rotate(179.737 323.827 253.957)" fill="url(#paint23_linear_133_1212)"/>
<ellipse cx="6.25772" cy="11.0363" rx="6.25772" ry="11.0363" transform="matrix(-0.944683 -0.327984 0.86381 -0.503818 366.344 260.498)" fill="#D9D9D9"/>
<ellipse cx="1.93824" cy="6.70058" rx="1.93824" ry="6.70058" transform="matrix(-0.944683 -0.327984 0.86381 -0.503818 367.133 257.287)" fill="url(#paint24_linear_133_1212)"/>
<ellipse cx="5.42018" cy="12.7991" rx="5.42018" ry="12.7991" transform="matrix(-0.878458 -0.47782 0.936325 -0.351134 334.126 271.446)" fill="#D9D9D9"/>
<ellipse cx="1.67883" cy="7.7709" rx="1.67883" ry="7.7709" transform="matrix(-0.878458 -0.47782 0.936325 -0.351134 336.454 268.386)" fill="url(#paint25_linear_133_1212)"/>
<ellipse cx="5.07374" cy="11.9811" rx="5.07374" ry="11.9811" transform="matrix(-0.878458 -0.47782 0.936325 -0.351134 304.917 282.896)" fill="#D9D9D9"/>
<ellipse cx="1.57152" cy="7.27421" rx="1.57152" ry="7.27421" transform="matrix(-0.878458 -0.47782 0.936325 -0.351134 307.097 280.032)" fill="url(#paint26_linear_133_1212)"/>
<ellipse cx="2.61797" cy="17.9198" rx="2.61797" ry="17.9198" transform="matrix(-0.699418 -0.714713 0.980212 -0.197951 252.337 289.45)" fill="#D9D9D9"/>
<ellipse cx="0.81088" cy="10.8799" rx="0.81088" ry="10.8799" transform="matrix(-0.699418 -0.714713 0.980212 -0.197951 258.322 287.12)" fill="url(#paint27_linear_133_1212)"/>
<ellipse cx="309.61" cy="267.958" rx="8.5882" ry="4.11477" transform="rotate(179.737 309.61 267.958)" fill="#D9D9D9"/>
<ellipse cx="309.15" cy="267.961" rx="4.75418" ry="2.49825" transform="rotate(179.737 309.15 267.961)" fill="url(#paint28_linear_133_1212)"/>
<ellipse cx="341.062" cy="205.834" rx="14.4926" ry="6.94367" transform="rotate(179.737 341.062 205.834)" fill="#D9D9D9"/>
<ellipse cx="340.285" cy="205.838" rx="8.02269" ry="4.2158" transform="rotate(179.737 340.285 205.838)" fill="url(#paint29_linear_133_1212)"/>
<ellipse cx="354.224" cy="164.884" rx="18.2499" ry="8.74387" transform="rotate(179.737 354.224 164.884)" fill="#D9D9D9"/>
<ellipse cx="353.246" cy="164.888" rx="10.1026" ry="5.30878" transform="rotate(179.737 353.246 164.888)" fill="url(#paint30_linear_133_1212)"/>
<ellipse cx="387.666" cy="119.209" rx="21.1015" ry="9.51539" transform="rotate(179.737 387.666 119.209)" fill="#D9D9D9"/>
<ellipse cx="386.536" cy="119.215" rx="11.6812" ry="5.7772" transform="rotate(179.737 386.536 119.215)" fill="url(#paint31_linear_133_1212)"/>
<ellipse cx="367.236" cy="141.935" rx="21.1015" ry="9.51539" transform="rotate(179.737 367.236 141.935)" fill="#D9D9D9"/>
<ellipse cx="366.106" cy="141.94" rx="11.6812" ry="5.7772" transform="rotate(179.737 366.106 141.94)" fill="url(#paint32_linear_133_1212)"/>
<ellipse cx="531.109" cy="58.8857" rx="23.3827" ry="10.5441" transform="rotate(179.737 531.109 58.8857)" fill="#D9D9D9"/>
<ellipse cx="529.855" cy="58.8912" rx="12.944" ry="6.40177" transform="rotate(179.737 529.855 58.8912)" fill="url(#paint33_linear_133_1212)"/>
<ellipse cx="734.007" cy="30.1781" rx="29.0858" ry="13.1158" transform="rotate(179.737 734.007 30.1781)" fill="#D9D9D9"/>
<ellipse cx="732.449" cy="30.1851" rx="16.1011" ry="7.96317" transform="rotate(179.737 732.449 30.1851)" fill="url(#paint34_linear_133_1212)"/>
<mask id="mask3_133_1212" style="mask-type:alpha" maskUnits="userSpaceOnUse" x="53" y="14" width="788" height="275">
<path d="M837.792 27.3864L827.717 68.838L713.85 111.538L687.616 111.658L657.39 111.797L623.759 115.552L571.898 123.763L517.212 137.902L464.274 160.005L419.369 192.615L411.978 197.536L401.206 211.473L394.443 229.249L377.98 245.784L366.026 250.725L360.348 256.152L350.642 253.882L355.8 259.259L338.704 262.166L331.31 266.572L326.732 263.25L319.318 263.284L319.358 272.028L311.944 272.062L301.706 278.024L293.124 272.148L289.709 273.707L289.737 279.622L249.841 285.463L249.808 278.262L243.535 278.291L238.995 283.198L230.451 285.552L212.201 285.636L205.917 283.35L205.895 278.464L196.188 275.937L190.485 275.963L180.801 278.579L171.677 278.621L160.259 276.102L160.243 272.759L150.548 272.803L147.101 267.419L136.836 267.466L127.141 267.51L127.121 263.138L119.694 260.344L113.42 260.372L119.68 257.258L113.396 254.972L103.13 255.019L100.839 252.972L96.8343 250.162L92.8421 250.18L92.828 247.094L96.8095 244.761L92.8102 243.236L85.3963 243.27L80.8185 239.948C80.822 240.72 80.1426 241.803 77.3967 239.964C74.6507 238.125 71.2973 236.477 69.9638 235.883L77.3659 233.277L83.6334 231.963L85.3313 229.126L85.8957 227.838L80.763 227.861L77.3305 225.562L69.9166 225.596L64.7944 227.935L59.6511 225.644L59.6357 222.3L59.6227 219.471L64.7448 217.133L64.7342 214.819L59.6014 214.842L56.1714 213.058L56.1513 208.686L56.1395 206.114L64.694 206.075L64.6834 203.761L59.5412 201.727L56.1194 201.742L53.2525 198.412L56.0934 196.085L59.5152 196.069L59.5069 194.269L53.2241 192.24L53.2064 188.383L53.1946 185.811L56.039 184.255L64.5936 184.216L64.5782 180.872L56.0166 179.369L55.9941 174.482L59.4076 172.667L69.6732 172.619L69.6602 169.79L64.5203 168.271L64.5014 164.156L69.6164 160.275L77.0375 161.784L83.3108 161.755L85.0147 160.204L80.4439 158.425L77.0162 157.155L80.4309 155.596L83.2718 153.269L85.546 151.715L96.3888 153.208L96.3817 151.665L96.3687 148.837L92.3766 148.855L92.3624 145.769L96.3546 145.751L102.628 145.722L112.893 145.675L109.455 142.09L105.458 141.08L109.444 139.775L119.121 135.616L126.535 135.582L130.516 133.249L136.21 131.166L140.772 131.145L140.762 128.83L152.163 127.749L152.153 125.692L166.404 124.083L174.388 124.046L180.076 120.677L188.636 121.924L191.476 119.339L201.171 119.294L205.175 121.848L211.449 121.819L211.437 119.247L222.278 120.483L226.286 123.808L232.563 124.551L238.262 123.753L252.527 125.23L257.104 128.296L257.114 130.61L265.088 128.259L271.372 130.545L271.381 132.602L273.678 135.935L283.373 135.89L289.076 135.864L292.512 138.934L289.108 142.807L297.672 144.826L301.108 147.896L301.128 152.268L311.394 152.221L311.411 156.078L306.87 160.728L318.857 162.988L318.876 167.102L311.482 171.508L318.904 173.274L306.951 178.216L318.934 179.704L314.964 184.608L306.98 184.645L301.289 187.243L307.01 191.074L297.885 191.116L292.77 194.997L297.913 197.288L297.928 200.631L283.659 198.125L287.108 204.024L280.269 205.085L271.704 202.809L271.726 207.696L265.462 209.782L257.469 207.761L252.926 212.154L243.231 212.198L243.221 209.884L232.955 209.931L232.974 214.046L230.122 214.059L226.692 212.274L226.682 209.96L219.268 209.994L215.875 216.439L205.599 214.172L208.427 209.015L201.579 208.018L201.588 210.075L193.609 211.141L189.037 209.104L190.156 204.47L180.461 204.514L174.763 205.569L174.752 203.255L177.589 200.156L171.309 198.641L163.337 201.25L159.903 198.694L163.311 195.592L152.467 193.842L152.457 191.784L150.158 187.937L143.878 186.423L146.717 183.838L150.131 182.022L140.999 180.521L140.992 178.978L150.106 176.622L150.094 174.05L146.664 172.266L155.789 172.224L155.776 169.395L150.623 165.047L155.75 163.737L166.592 164.973L171.131 159.809L171.116 156.723L180.255 159.767L188.817 161.271L188.834 164.871L180.299 169.282L177.461 172.124L180.343 178.797L183.213 182.899L188.927 185.187L193.501 187.738L197.504 190.034L205.495 191.541L211.778 193.569L222.614 193.519L230.028 193.485L238.583 193.446L247.128 191.349L252.824 189.78L257.368 185.902L265.341 183.293L265.318 178.407L265.296 173.521L265.267 167.349L257.254 160.956L246.967 156.374L242.957 152.535L229.84 152.595L215.575 151.118L191.623 151.228L174.521 152.849L150.6 159.903L130.696 172.339L126.757 183.93L126.832 200.389L136.574 210.374L144.028 219.084L160.025 225.182L177.734 231.53L205.706 237.317L230.229 237.204L253.032 235.042L274.109 229.802L289.476 222.787L301.421 216.046L311.652 208.541L319.025 199.506L326.4 190.985L330.926 182.992L341.717 173.17L345.7 171.351L365.573 151.972L384.862 130.023L418.967 105.178L456.509 83.6595L512.886 65.141L571.571 52.7841L637.657 37.3071L706.07 31.8493L777.33 25.3497L837.792 27.3864Z" fill="#D9D9D9"/>
<ellipse cx="722.779" cy="68.806" rx="29.0858" ry="13.1158" transform="rotate(179.737 722.779 68.806)" fill="#D9D9D9"/>
<ellipse cx="721.221" cy="68.8135" rx="16.1011" ry="7.96317" transform="rotate(179.737 721.221 68.8135)" fill="#D9D9D9"/>
<ellipse cx="659.493" cy="73.4688" rx="25.0937" ry="11.3156" transform="rotate(179.737 659.493 73.4688)" fill="#D9D9D9"/>
<ellipse cx="658.15" cy="73.475" rx="13.8911" ry="6.87019" transform="rotate(179.737 658.15 73.475)" fill="#D9D9D9"/>
<ellipse cx="659.312" cy="33.8647" rx="25.0937" ry="11.3156" transform="rotate(179.737 659.312 33.8647)" fill="#D9D9D9"/>
<ellipse cx="657.968" cy="33.8705" rx="13.8911" ry="6.87019" transform="rotate(179.737 657.968 33.8705)" fill="#D9D9D9"/>
<ellipse cx="600.224" cy="82.4844" rx="25.0937" ry="11.3156" transform="rotate(179.737 600.224 82.4844)" fill="#D9D9D9"/>
<ellipse cx="598.88" cy="82.4911" rx="13.8911" ry="6.87019" transform="rotate(179.737 598.88 82.4911)" fill="#D9D9D9"/>
<ellipse cx="598.914" cy="45.4575" rx="25.0937" ry="11.3156" transform="rotate(179.737 598.914 45.4575)" fill="#D9D9D9"/>
<ellipse cx="597.569" cy="45.4632" rx="13.8911" ry="6.87019" transform="rotate(179.737 597.569 45.4632)" fill="#D9D9D9"/>
<ellipse cx="550.102" cy="96.6021" rx="25.0937" ry="11.3156" transform="rotate(179.737 550.102 96.6021)" fill="#D9D9D9"/>
<ellipse cx="548.758" cy="96.6087" rx="13.8911" ry="6.87019" transform="rotate(179.737 548.758 96.6087)" fill="#D9D9D9"/>
<ellipse cx="499.978" cy="111.235" rx="25.0937" ry="11.3156" transform="rotate(179.737 499.978 111.235)" fill="#D9D9D9"/>
<ellipse cx="498.634" cy="111.242" rx="13.8911" ry="6.87019" transform="rotate(179.737 498.634 111.242)" fill="#D9D9D9"/>
<ellipse cx="471.863" cy="74.0737" rx="23.3827" ry="10.5441" transform="rotate(179.737 471.863 74.0737)" fill="#D9D9D9"/>
<ellipse cx="470.61" cy="74.0792" rx="12.944" ry="6.40177" transform="rotate(179.737 470.61 74.0792)" fill="#D9D9D9"/>
<ellipse cx="462.987" cy="128.635" rx="23.3827" ry="10.5441" transform="rotate(179.737 462.987 128.635)" fill="#D9D9D9"/>
<ellipse cx="461.734" cy="128.641" rx="12.944" ry="6.40177" transform="rotate(179.737 461.734 128.641)" fill="#D9D9D9"/>
<ellipse cx="426.341" cy="96.3999" rx="23.3827" ry="10.5441" transform="rotate(179.737 426.341 96.3999)" fill="#D9D9D9"/>
<ellipse cx="425.088" cy="96.4053" rx="12.944" ry="6.40177" transform="rotate(179.737 425.088 96.4053)" fill="#D9D9D9"/>
<ellipse cx="449.972" cy="150.555" rx="18.2499" ry="8.74387" transform="rotate(179.737 449.972 150.555)" fill="#D9D9D9"/>
<ellipse cx="448.994" cy="150.559" rx="10.1026" ry="5.30878" transform="rotate(179.737 448.994 150.559)" fill="#D9D9D9"/>
<ellipse cx="421.537" cy="168.174" rx="18.2499" ry="8.74387" transform="rotate(179.737 421.537 168.174)" fill="#D9D9D9"/>
<ellipse cx="420.56" cy="168.178" rx="10.1026" ry="5.30878" transform="rotate(179.737 420.56 168.178)" fill="#D9D9D9"/>
<ellipse cx="406.594" cy="186.76" rx="15.0294" ry="7.20084" transform="rotate(179.737 406.594 186.76)" fill="#D9D9D9"/>
<ellipse cx="405.789" cy="186.764" rx="8.31982" ry="4.37194" transform="rotate(179.737 405.789 186.764)" fill="#D9D9D9"/>
<ellipse cx="351.844" cy="187.01" rx="15.0294" ry="7.20084" transform="rotate(179.737 351.844 187.01)" fill="#D9D9D9"/>
<ellipse cx="351.039" cy="187.014" rx="8.31982" ry="4.37194" transform="rotate(179.737 351.039 187.014)" fill="#D9D9D9"/>
<ellipse cx="399.228" cy="204.538" rx="14.4926" ry="6.94367" transform="rotate(179.737 399.228 204.538)" fill="#D9D9D9"/>
<ellipse cx="398.451" cy="204.542" rx="8.02269" ry="4.2158" transform="rotate(179.737 398.451 204.542)" fill="#D9D9D9"/>
<ellipse cx="345.031" cy="223.046" rx="12.8823" ry="6.17215" transform="rotate(179.737 345.031 223.046)" fill="#D9D9D9"/>
<ellipse cx="344.342" cy="223.05" rx="7.13128" ry="3.74738" transform="rotate(179.737 344.342 223.05)" fill="#D9D9D9"/>
<ellipse cx="400.91" cy="220.218" rx="12.8823" ry="6.17215" transform="rotate(179.737 400.91 220.218)" fill="#D9D9D9"/>
<ellipse cx="400.22" cy="220.221" rx="7.13128" ry="3.74738" transform="rotate(179.737 400.22 220.221)" fill="#D9D9D9"/>
<ellipse cx="394.147" cy="237.737" rx="12.8823" ry="6.17215" transform="rotate(179.737 394.147 237.737)" fill="#D9D9D9"/>
<ellipse cx="393.457" cy="237.74" rx="7.13128" ry="3.74738" transform="rotate(179.737 393.457 237.74)" fill="#D9D9D9"/>
<ellipse cx="339.407" cy="240.046" rx="12.8823" ry="6.17215" transform="rotate(179.737 339.407 240.046)" fill="#D9D9D9"/>
<ellipse cx="338.718" cy="240.05" rx="7.13128" ry="3.74738" transform="rotate(179.737 338.718 240.05)" fill="#D9D9D9"/>
<ellipse cx="327.831" cy="253.938" rx="10.8359" ry="5.19168" transform="rotate(179.737 327.831 253.938)" fill="#D9D9D9"/>
<ellipse cx="327.25" cy="253.941" rx="5.99844" ry="3.15209" transform="rotate(179.737 327.25 253.941)" fill="#D9D9D9"/>
<ellipse cx="6.25772" cy="11.0363" rx="6.25772" ry="11.0363" transform="matrix(-0.944683 -0.327984 0.86381 -0.503818 369.766 260.48)" fill="#D9D9D9"/>
<ellipse cx="1.93824" cy="6.70058" rx="1.93824" ry="6.70058" transform="matrix(-0.944683 -0.327984 0.86381 -0.503818 370.556 257.27)" fill="#D9D9D9"/>
<ellipse cx="5.42018" cy="12.7991" rx="5.42018" ry="12.7991" transform="matrix(-0.878458 -0.47782 0.936325 -0.351134 337.548 271.43)" fill="#D9D9D9"/>
<ellipse cx="1.67883" cy="7.7709" rx="1.67883" ry="7.7709" transform="matrix(-0.878458 -0.47782 0.936325 -0.351134 339.876 268.37)" fill="#D9D9D9"/>
<ellipse cx="5.07375" cy="11.9811" rx="5.07375" ry="11.9811" transform="matrix(-0.878458 -0.47782 0.936325 -0.351134 308.339 282.88)" fill="#D9D9D9"/>
<ellipse cx="1.57152" cy="7.27421" rx="1.57152" ry="7.27421" transform="matrix(-0.878458 -0.47782 0.936325 -0.351134 310.518 280.016)" fill="#D9D9D9"/>
<ellipse cx="2.61797" cy="17.9198" rx="2.61797" ry="17.9198" transform="matrix(-0.699418 -0.714713 0.980212 -0.197951 255.758 289.433)" fill="#D9D9D9"/>
<ellipse cx="0.81088" cy="10.8799" rx="0.81088" ry="10.8799" transform="matrix(-0.699418 -0.714713 0.980212 -0.197951 261.744 287.104)" fill="#D9D9D9"/>
<ellipse cx="313.032" cy="267.942" rx="8.5882" ry="4.11477" transform="rotate(179.737 313.032 267.942)" fill="#D9D9D9"/>
<ellipse cx="312.572" cy="267.945" rx="4.75418" ry="2.49825" transform="rotate(179.737 312.572 267.945)" fill="#D9D9D9"/>
<ellipse cx="344.483" cy="205.818" rx="14.4926" ry="6.94367" transform="rotate(179.737 344.483 205.818)" fill="#D9D9D9"/>
<ellipse cx="343.706" cy="205.822" rx="8.02269" ry="4.2158" transform="rotate(179.737 343.706 205.822)" fill="#D9D9D9"/>
<ellipse cx="357.646" cy="164.867" rx="18.2499" ry="8.74387" transform="rotate(179.737 357.646 164.867)" fill="#D9D9D9"/>
<ellipse cx="356.668" cy="164.871" rx="10.1026" ry="5.30878" transform="rotate(179.737 356.668 164.871)" fill="#D9D9D9"/>
<ellipse cx="391.085" cy="119.193" rx="21.1015" ry="9.51539" transform="rotate(179.737 391.085 119.193)" fill="#D9D9D9"/>
<ellipse cx="389.954" cy="119.198" rx="11.6812" ry="5.7772" transform="rotate(179.737 389.954 119.198)" fill="#D9D9D9"/>
<ellipse cx="370.658" cy="141.919" rx="21.1015" ry="9.51539" transform="rotate(179.737 370.658 141.919)" fill="#D9D9D9"/>
<ellipse cx="369.528" cy="141.923" rx="11.6812" ry="5.7772" transform="rotate(179.737 369.528 141.923)" fill="#D9D9D9"/>
<ellipse cx="534.529" cy="58.8691" rx="23.3827" ry="10.5441" transform="rotate(179.737 534.529 58.8691)" fill="#D9D9D9"/>
<ellipse cx="533.275" cy="58.8746" rx="12.944" ry="6.40177" transform="rotate(179.737 533.275 58.8746)" fill="#D9D9D9"/>
<ellipse cx="737.43" cy="30.162" rx="29.0858" ry="13.1158" transform="rotate(179.737 737.43 30.162)" fill="#D9D9D9"/>
<ellipse cx="735.873" cy="30.169" rx="16.1011" ry="7.96317" transform="rotate(179.737 735.873 30.169)" fill="#D9D9D9"/>
</mask>
<g mask="url(#mask3_133_1212)">
<rect width="344.581" height="193.406" transform="matrix(-0.998638 -0.0521774 0.264855 -0.964288 276.58 310.94)" fill="url(#paint35_linear_133_1212)"/>
</g>
<mask id="mask4_133_1212" style="mask-type:alpha" maskUnits="userSpaceOnUse" x="49" y="25" width="786" height="261">
<path d="M834.371 27.402L824.295 68.8536L710.428 111.554L684.194 111.674L653.968 111.813L620.337 115.568L568.476 123.779L513.79 137.917L460.852 160.021L415.947 192.631L408.556 197.551L397.784 211.488L391.022 229.264L374.558 245.799L362.604 250.741L356.926 256.167L347.22 253.897L352.378 259.274L335.282 262.182L327.888 266.588L323.31 263.266L315.896 263.3L315.936 272.043L308.522 272.077L298.284 278.04L289.702 272.164L286.288 273.723L286.315 279.638L246.419 285.479L246.386 278.278L240.113 278.307L235.573 283.214L227.029 285.568L208.779 285.652L202.495 283.366L202.473 278.48L192.766 275.953L187.063 275.979L177.379 278.595L168.255 278.637L156.837 276.118L156.821 272.774L147.126 272.819L143.68 267.434L133.414 267.481L123.719 267.526L123.699 263.154L116.272 260.359L109.999 260.388L116.258 257.273L109.974 254.987L99.7082 255.035L97.4176 252.988L93.4124 250.177L89.4203 250.196L89.4061 247.109L93.3876 244.777L89.3884 243.252L81.9744 243.286L77.3966 239.964C77.4002 240.735 76.7208 241.819 73.9748 239.979C71.2288 238.14 67.8755 236.493 66.542 235.899L73.9441 233.293L80.2115 231.978L81.9095 229.142L82.4739 227.853L77.3411 227.877L73.9086 225.578L66.4947 225.612L61.3726 227.95L56.2292 225.659L56.2138 222.316L56.2008 219.487L61.3229 217.149L61.3123 214.834L56.1796 214.858L52.7495 213.074L52.7294 208.702L52.7176 206.13L61.2721 206.091L61.2615 203.776L56.1193 201.742L52.6975 201.758L49.8306 198.428L52.6715 196.1L56.0933 196.085L56.085 194.284L49.8023 192.256L49.7845 188.398L49.7727 185.827L52.6172 184.271L61.1717 184.231L61.1563 180.888L52.5947 179.384L52.5723 174.498L55.9858 172.682L66.2513 172.635L66.2383 169.806L61.0984 168.287L61.0795 164.172L66.1946 160.291L73.6156 161.8L79.889 161.771L81.5928 160.22L77.0221 158.441L73.5943 157.171L77.0091 155.612L79.85 153.284L82.1241 151.731L92.967 153.224L92.9599 151.681L92.9469 148.852L88.9547 148.871L88.9405 145.784L92.9327 145.766L99.2061 145.737L109.472 145.69L106.033 142.105L102.036 141.095L106.022 139.791L115.699 135.632L123.113 135.598L127.094 133.265L132.788 131.181L137.35 131.16L137.34 128.846L148.741 127.765L148.732 125.707L162.982 124.099L170.966 124.062L176.654 120.693L185.215 121.939L188.054 119.354L197.749 119.31L201.753 121.863L208.027 121.834L208.015 119.263L218.857 120.499L222.864 123.824L229.141 124.566L234.84 123.769L249.105 125.246L253.682 128.311L253.692 130.626L261.666 128.274L267.95 130.56L267.959 132.618L270.256 135.95L279.951 135.906L285.654 135.88L289.09 138.95L285.686 142.823L294.25 144.841L297.686 147.911L297.706 152.283L307.972 152.236L307.989 156.094L303.448 160.744L315.435 163.003L315.454 167.118L308.06 171.524L315.483 173.29L303.529 178.231L315.512 179.719L311.542 184.624L303.558 184.661L297.867 187.259L303.588 191.09L294.463 191.132L289.348 195.013L294.491 197.304L294.507 200.647L280.237 198.141L283.686 204.04L276.847 205.1L268.282 202.825L268.304 207.711L262.041 209.797L254.047 207.777L249.505 212.17L239.809 212.214L239.799 209.9L229.533 209.947L229.552 214.061L226.701 214.075L223.271 212.29L223.26 209.976L215.846 210.01L212.454 216.455L202.178 214.187L205.005 209.031L198.157 208.034L198.166 210.091L190.187 211.156L185.615 209.12L186.734 204.486L177.039 204.53L171.341 205.585L171.33 203.27L174.168 200.171L167.887 198.657L159.915 201.265L156.481 198.709L159.889 195.608L149.045 193.857L149.035 191.8L146.736 187.953L140.456 186.439L143.296 183.854L146.709 182.038L137.577 180.537L137.57 178.994L146.684 176.637L146.672 174.066L143.242 172.281L152.367 172.239L152.354 169.41L147.201 165.062L152.328 163.753L163.17 164.989L167.709 159.824L167.695 156.738L176.834 159.782L185.395 161.286L185.412 164.887L176.877 169.298L174.039 172.14L176.921 178.813L179.791 182.915L185.505 185.203L190.079 187.754L194.082 190.05L202.074 191.556L208.356 193.585L219.192 193.535L226.606 193.501L235.161 193.462L243.706 191.365L249.402 189.796L253.946 185.917L261.919 183.309L261.896 178.423L261.874 173.536L261.846 167.364L253.832 160.972L243.545 156.39L239.535 152.551L226.418 152.611L212.153 151.133L188.201 151.243L171.099 152.865L147.178 159.919L127.274 172.355L123.335 183.946L123.41 200.404L133.152 210.39L140.606 219.099L156.603 225.198L174.312 231.546L202.284 237.333L226.807 237.22L249.61 235.058L270.687 229.817L286.054 222.803L297.999 216.062L308.231 208.556L315.603 199.521L322.978 191.001L327.504 183.008L338.295 173.185L342.279 171.367L362.151 151.987L381.441 130.039L415.545 105.193L453.087 83.6751L509.464 65.1566L568.15 52.7997L634.235 37.3227L702.648 31.8649L773.908 25.3653L834.371 27.402Z" fill="white"/>
</mask>
<g mask="url(#mask4_133_1212)">
<path d="M264.258 233.398L284.416 276.254L286.429 270.5L298.5 236L303.5 215.5L278.5 229.5L264.258 233.398Z" fill="url(#paint36_linear_133_1212)"/>
</g>
<path d="M679.541 92.0321L801.332 79.2295L763.321 99.5229L710.391 112.139L599.827 120.43L518.928 139.062L452.334 168.171L524.567 125.148L607.16 102.909L679.541 92.0321Z" fill="url(#paint37_linear_133_1212)" stroke="url(#paint38_linear_133_1212)"/>
</g>
<defs>
<linearGradient id="paint0_linear_133_1212" x1="426.692" y1="462.755" x2="464.74" y2="-13.3694" gradientUnits="userSpaceOnUse">
<stop stop-color="#FCF8F8"/>
<stop offset="0.0001" stop-color="#FCF8F8"/>
<stop offset="1" stop-color="#302C2C" stop-opacity="0.788542"/>
</linearGradient>
<linearGradient id="paint1_linear_133_1212" x1="301.126" y1="276.109" x2="300.671" y2="177.098" gradientUnits="userSpaceOnUse">
<stop stop-color="#ECECEC"/>
<stop offset="1" stop-color="white" stop-opacity="0"/>
</linearGradient>
<linearGradient id="paint2_linear_133_1212" x1="301.126" y1="276.109" x2="300.671" y2="177.098" gradientUnits="userSpaceOnUse">
<stop stop-color="#ECECEC"/>
<stop offset="1" stop-color="white" stop-opacity="0"/>
</linearGradient>
<linearGradient id="paint3_linear_133_1212" x1="442.889" y1="284.577" x2="441.705" y2="26.8921" gradientUnits="userSpaceOnUse">
<stop stop-color="#ECECEC"/>
<stop offset="1" stop-color="white" stop-opacity="0"/>
</linearGradient>
<linearGradient id="paint4_linear_133_1212" x1="717.8" y1="60.8665" x2="717.8" y2="76.7928" gradientUnits="userSpaceOnUse">
<stop stop-color="#ECECEC"/>
<stop offset="1" stop-color="white" stop-opacity="0"/>
</linearGradient>
<linearGradient id="paint5_linear_133_1212" x1="654.73" y1="66.6204" x2="654.73" y2="80.3608" gradientUnits="userSpaceOnUse">
<stop stop-color="#ECECEC"/>
<stop offset="1" stop-color="white" stop-opacity="0"/>
</linearGradient>
<linearGradient id="paint6_linear_133_1212" x1="654.548" y1="27.0159" x2="654.548" y2="40.7563" gradientUnits="userSpaceOnUse">
<stop stop-color="#ECECEC"/>
<stop offset="1" stop-color="white" stop-opacity="0"/>
</linearGradient>
<linearGradient id="paint7_linear_133_1212" x1="595.459" y1="75.6365" x2="595.459" y2="89.3769" gradientUnits="userSpaceOnUse">
<stop stop-color="#ECECEC"/>
<stop offset="1" stop-color="white" stop-opacity="0"/>
</linearGradient>
<linearGradient id="paint8_linear_133_1212" x1="594.148" y1="38.6101" x2="594.148" y2="52.3505" gradientUnits="userSpaceOnUse">
<stop stop-color="#ECECEC"/>
<stop offset="1" stop-color="white" stop-opacity="0"/>
</linearGradient>
<linearGradient id="paint9_linear_133_1212" x1="545.335" y1="89.7547" x2="545.335" y2="103.495" gradientUnits="userSpaceOnUse">
<stop stop-color="#ECECEC"/>
<stop offset="1" stop-color="white" stop-opacity="0"/>
</linearGradient>
<linearGradient id="paint10_linear_133_1212" x1="495.213" y1="104.387" x2="495.213" y2="118.127" gradientUnits="userSpaceOnUse">
<stop stop-color="#ECECEC"/>
<stop offset="1" stop-color="white" stop-opacity="0"/>
</linearGradient>
<linearGradient id="paint11_linear_133_1212" x1="467.191" y1="67.693" x2="467.191" y2="80.4966" gradientUnits="userSpaceOnUse">
<stop stop-color="#ECECEC"/>
<stop offset="1" stop-color="white" stop-opacity="0"/>
</linearGradient>
<linearGradient id="paint12_linear_133_1212" x1="458.316" y1="122.255" x2="458.316" y2="135.059" gradientUnits="userSpaceOnUse">
<stop stop-color="#ECECEC"/>
<stop offset="1" stop-color="white" stop-opacity="0"/>
</linearGradient>
<linearGradient id="paint13_linear_133_1212" x1="421.667" y1="90.0192" x2="421.667" y2="102.823" gradientUnits="userSpaceOnUse">
<stop stop-color="#ECECEC"/>
<stop offset="1" stop-color="white" stop-opacity="0"/>
</linearGradient>
<linearGradient id="paint14_linear_133_1212" x1="445.571" y1="145.267" x2="445.571" y2="155.884" gradientUnits="userSpaceOnUse">
<stop stop-color="#ECECEC"/>
<stop offset="1" stop-color="white" stop-opacity="0"/>
</linearGradient>
<linearGradient id="paint15_linear_133_1212" x1="417.139" y1="162.885" x2="417.139" y2="173.503" gradientUnits="userSpaceOnUse">
<stop stop-color="#ECECEC"/>
<stop offset="1" stop-color="white" stop-opacity="0"/>
</linearGradient>
<linearGradient id="paint16_linear_133_1212" x1="402.367" y1="182.408" x2="402.367" y2="191.152" gradientUnits="userSpaceOnUse">
<stop stop-color="#ECECEC"/>
<stop offset="1" stop-color="white" stop-opacity="0"/>
</linearGradient>
<linearGradient id="paint17_linear_133_1212" x1="347.618" y1="182.66" x2="347.618" y2="191.404" gradientUnits="userSpaceOnUse">
<stop stop-color="#ECECEC"/>
<stop offset="1" stop-color="white" stop-opacity="0"/>
</linearGradient>
<linearGradient id="paint18_linear_133_1212" x1="395.028" y1="200.343" x2="395.028" y2="208.774" gradientUnits="userSpaceOnUse">
<stop stop-color="#ECECEC"/>
<stop offset="1" stop-color="white" stop-opacity="0"/>
</linearGradient>
<linearGradient id="paint19_linear_133_1212" x1="340.92" y1="219.319" x2="340.92" y2="226.814" gradientUnits="userSpaceOnUse">
<stop stop-color="#ECECEC"/>
<stop offset="1" stop-color="white" stop-opacity="0"/>
</linearGradient>
<linearGradient id="paint20_linear_133_1212" x1="396.798" y1="216.49" x2="396.798" y2="223.985" gradientUnits="userSpaceOnUse">
<stop stop-color="#ECECEC"/>
<stop offset="1" stop-color="white" stop-opacity="0"/>
</linearGradient>
<linearGradient id="paint21_linear_133_1212" x1="390.036" y1="234.009" x2="390.036" y2="241.504" gradientUnits="userSpaceOnUse">
<stop stop-color="#ECECEC"/>
<stop offset="1" stop-color="white" stop-opacity="0"/>
</linearGradient>
<linearGradient id="paint22_linear_133_1212" x1="335.296" y1="236.318" x2="335.296" y2="243.813" gradientUnits="userSpaceOnUse">
<stop stop-color="#ECECEC"/>
<stop offset="1" stop-color="white" stop-opacity="0"/>
</linearGradient>
<linearGradient id="paint23_linear_133_1212" x1="323.827" y1="250.805" x2="323.827" y2="257.109" gradientUnits="userSpaceOnUse">
<stop stop-color="#ECECEC"/>
<stop offset="1" stop-color="white" stop-opacity="0"/>
</linearGradient>
<linearGradient id="paint24_linear_133_1212" x1="1.93824" y1="0" x2="1.93824" y2="13.4012" gradientUnits="userSpaceOnUse">
<stop stop-color="#ECECEC"/>
<stop offset="1" stop-color="white" stop-opacity="0"/>
</linearGradient>
<linearGradient id="paint25_linear_133_1212" x1="1.67883" y1="0" x2="1.67883" y2="15.5418" gradientUnits="userSpaceOnUse">
<stop stop-color="#ECECEC"/>
<stop offset="1" stop-color="white" stop-opacity="0"/>
</linearGradient>
<linearGradient id="paint26_linear_133_1212" x1="1.57152" y1="0" x2="1.57152" y2="14.5484" gradientUnits="userSpaceOnUse">
<stop stop-color="#ECECEC"/>
<stop offset="1" stop-color="white" stop-opacity="0"/>
</linearGradient>
<linearGradient id="paint27_linear_133_1212" x1="0.81088" y1="0" x2="0.81088" y2="21.7598" gradientUnits="userSpaceOnUse">
<stop stop-color="#ECECEC"/>
<stop offset="1" stop-color="white" stop-opacity="0"/>
</linearGradient>
<linearGradient id="paint28_linear_133_1212" x1="309.15" y1="265.463" x2="309.15" y2="270.459" gradientUnits="userSpaceOnUse">
<stop stop-color="#ECECEC"/>
<stop offset="1" stop-color="white" stop-opacity="0"/>
</linearGradient>
<linearGradient id="paint29_linear_133_1212" x1="340.285" y1="201.622" x2="340.285" y2="210.054" gradientUnits="userSpaceOnUse">
<stop stop-color="#ECECEC"/>
<stop offset="1" stop-color="white" stop-opacity="0"/>
</linearGradient>
<linearGradient id="paint30_linear_133_1212" x1="353.246" y1="159.579" x2="353.246" y2="170.196" gradientUnits="userSpaceOnUse">
<stop stop-color="#ECECEC"/>
<stop offset="1" stop-color="white" stop-opacity="0"/>
</linearGradient>
<linearGradient id="paint31_linear_133_1212" x1="386.536" y1="113.437" x2="386.536" y2="124.992" gradientUnits="userSpaceOnUse">
<stop stop-color="#ECECEC"/>
<stop offset="1" stop-color="white" stop-opacity="0"/>
</linearGradient>
<linearGradient id="paint32_linear_133_1212" x1="366.106" y1="136.162" x2="366.106" y2="147.717" gradientUnits="userSpaceOnUse">
<stop stop-color="#ECECEC"/>
<stop offset="1" stop-color="white" stop-opacity="0"/>
</linearGradient>
<linearGradient id="paint33_linear_133_1212" x1="529.855" y1="52.4894" x2="529.855" y2="65.2929" gradientUnits="userSpaceOnUse">
<stop stop-color="#ECECEC"/>
<stop offset="1" stop-color="white" stop-opacity="0"/>
</linearGradient>
<linearGradient id="paint34_linear_133_1212" x1="732.449" y1="22.2219" x2="732.449" y2="38.1483" gradientUnits="userSpaceOnUse">
<stop stop-color="#ECECEC"/>
<stop offset="1" stop-color="white" stop-opacity="0"/>
</linearGradient>
<linearGradient id="paint35_linear_133_1212" x1="172.29" y1="0" x2="172.29" y2="193.406" gradientUnits="userSpaceOnUse">
<stop stop-color="#ECECEC"/>
<stop offset="1" stop-color="white" stop-opacity="0"/>
</linearGradient>
<linearGradient id="paint36_linear_133_1212" x1="232" y1="268" x2="292" y2="238" gradientUnits="userSpaceOnUse">
<stop stop-color="#A8A8A8"/>
<stop offset="1" stop-color="#D7D6D6"/>
</linearGradient>
<linearGradient id="paint37_linear_133_1212" x1="627.034" y1="167.369" x2="626.632" y2="80.0321" gradientUnits="userSpaceOnUse">
<stop stop-color="#ECECEC"/>
<stop offset="1" stop-color="white" stop-opacity="0"/>
</linearGradient>
<linearGradient id="paint38_linear_133_1212" x1="627.034" y1="167.369" x2="626.632" y2="80.0321" gradientUnits="userSpaceOnUse">
<stop stop-color="#ECECEC"/>
<stop offset="1" stop-color="white" stop-opacity="0"/>
</linearGradient>
</defs>
</svg>
