<svg width="1440" height="788" viewBox="0 0 1440 788" fill="none" xmlns="http://www.w3.org/2000/svg">
<g clip-path="url(#clip0_110_255)">
<rect width="1440" height="788" fill="#140000"/>
<path d="M71.4885 272.631L82.036 250.877L97.8572 218.575L89.9466 191.547L66.2147 165.178L38.5275 149.357L8.20351 142.106L-19.6346 136L-28 432.821M71.4885 272.631L54.3488 283.838L66.2147 289.111V300.318L75.4438 304.274L77.4214 313.503L75.4438 322.732L71.4885 329.983L66.2147 333.279L58.9633 335.916M71.4885 272.631L63.5779 269.335L71.4885 231.76L66.2147 250.877L52.3711 283.838L43.1421 295.704H29.2985L14.7957 301.637L11.4996 300.318L6.22585 292.408V304.274L-0.366329 306.251L-4.32164 289.111V310.206L-8.93617 319.436V329.983V339.212L2.27054 353.715L11.4996 368.877L22.0471 377.447L33.2538 391.29L24.0247 368.877L33.2538 360.966L40.0638 350.458L26.0024 360.966L16.7733 355.693L3.58898 346.463L11.4996 349.1L20.0694 351.078H29.2985L46.4382 335.916L56.9857 329.983L58.9633 326.687M58.9633 335.916L56.9857 347.782V360.966V368.877L63.5779 374.81L71.4885 380.743L91.265 382.72L112.36 374.81L126.863 365.581M58.9633 335.916L52.3711 349.1L50.3935 358.989V368.877V385.357L43.1421 380.743L35.1206 373.491L41.1644 385.357L44.4605 393.927L50.3935 404.475L56.9857 411.067L66.2147 417.659L82.036 428.866V440.072M126.863 365.581V355.693L125.544 349.1M126.863 365.581L124.226 377.447L111.042 391.29M125.544 349.1H132.796M125.544 349.1L120.93 335.916L117.634 319.436V295.704L132.796 272.631L144.002 265.38L155.209 263.402L169.053 265.38L185.533 281.201M132.796 349.1L126.863 329.983L124.226 303.614L130.159 281.201L142.684 269.335L156.528 265.38L169.053 266.698L176.304 272.631L185.533 281.201M132.796 349.1L144.002 355.693M185.533 281.201L189.489 292.408L182.237 285.815H176.304H169.053L161.801 289.111L156.528 295.704L154.55 301.637V310.206L156.528 319.436L161.801 329.983L169.053 344.486L174.327 355.693M174.327 355.693V374.81L169.053 388.653L164.438 398.542M174.327 355.693L177.293 363.603M164.438 398.542H192.125L209.265 404.475L221.131 417.659L224.427 432.821L221.131 445.346L215.198 455.894M164.438 398.542L161.801 380.743L156.528 368.877L149.935 360.966M164.438 398.542L153.232 411.067L144.002 422.933L136.751 432.821L130.159 445.346V451.279L136.751 459.849V447.983L142.684 440.072L149.935 447.983L155.278 461.49L154.55 476.989L149.935 484.24L142.684 492.151L132.796 497.424L111.042 495.447L91.265 480.285L86.6505 468.419L84.3432 459.849M215.198 455.894L206.628 459.849M215.198 455.894L233.656 447.983M233.656 447.983L244.204 428.866V413.045L234.975 397.223L224.427 385.357L209.265 377.447L189.489 371.514H180.259L177.293 363.603M233.656 447.983L244.204 437.436L248.818 425.57V407.771L244.204 398.542L233.656 385.357L221.131 377.447L209.265 368.877L196.74 365.581L177.293 363.603M149.935 360.966L144.002 355.693M149.935 360.966L154.55 371.514L157.846 380.743V389.972L153.232 401.838L147.299 413.045L138.729 422.933L128.84 437.436L123.567 449.961L126.863 463.804L133.224 467.193L134.773 465.292L139.688 467.954L140.706 462.486V457.871V453.257L144.002 447.983L147.299 453.257L149.935 463.804V472.374L147.299 480.285L138.729 487.536L136.751 484.24L128.84 476.989L122.248 476.329V473.693L120.93 466.441L118.952 462.486L117.634 451.279V445.346V437.436L120.93 434.799L124.226 425.57L131.477 417.659L134.773 411.067L140.706 399.86L144.002 393.927L147.299 388.653L149.935 380.743V371.514M144.002 355.693H138.729L132.796 353.715V363.603L131.477 373.491L126.863 382.72L114.997 393.927L111.042 391.29M144.002 355.693L149.935 368.877M82.036 451.279L86.6505 428.866L88.6282 418.977L101.813 404.475L111.042 391.29M82.036 451.279L84.3432 459.849M82.036 451.279V440.072M82.036 451.279L43.1421 411.067L82.036 440.072M82.036 451.279L68.1924 447.983L37.2091 422.933L11.4996 391.29L-0.366329 374.81L9.52194 407.112L20.0694 428.866L37.2091 451.279L54.3488 468.419M84.3432 459.849H75.4438H66.2147L56.9857 463.804L54.3488 468.419M54.3488 468.419L63.5779 484.24L71.4885 501.38V511.927V526.43L58.9633 553.458L54.3488 565.324L44.4605 592.352V604.877L47.0974 618.721L52.3711 629.927L68.8516 645.089L84.3432 653M84.3432 653L68.8516 650.363L51.0527 646.408L37.2091 637.179L26.6616 621.358L19.4102 600.922V583.123L26.6616 560.709L37.2091 540.274L44.4605 520.497L46.5 507.5L39.1868 491.492L29.2985 480.285L16.7733 463.804L-4.32164 445.346L-8.93617 437.436L-28 432.821M84.3432 653H58.9633L41.8236 645.089L33.913 637.179M-28 432.821L-10.9138 451.279L-0.366329 459.849L5.56664 466.112M24.0247 487.536L11.4996 472.374L5.56664 466.112M24.0247 487.536L20.0694 488.855L14.1365 492.151L9.52194 488.855L5.56664 485.559L2.92976 480.285L-0.366329 475.67L0.952105 471.056L2.92976 468.419L5.56664 466.112M24.0247 487.536L26.6616 494.458M19.4102 556.095L27.7603 531.045M19.4102 556.095L16.7733 553.458L14.1365 548.844L13.4773 542.251L16.7733 535.659L19.4102 531.045L22.0471 529.726L27.7603 531.045M19.4102 556.095L17.8129 565.324M23.3655 623.335L29.2985 632.564L33.913 637.179M23.3655 623.335L20.786 617.402M23.3655 623.335L22.0471 625.972V629.927L23.3655 632.564L26.6616 634.542L27.7603 637.179H33.913M58.9633 326.687H46.4382L33.2538 333.279M58.9633 326.687L63.5779 329.983H66.2147L71.4885 322.732V315.48L68.1924 308.229L58.9633 304.274L46.4382 300.318L29.2985 298.341L16.7733 306.251L6.22585 313.503L-0.366329 319.436H9.52194L14.7957 315.48L20.0694 310.206L29.2985 306.251L33.2538 304.274H43.1421L52.3711 306.251L58.9633 310.206L63.5779 315.48H56.9857L46.4382 313.503H39.1868H33.2538L26.0024 315.48L20.0694 319.436L11.4996 322.732L2.27054 326.687L-2.34398 333.279L-0.366329 341.19H11.4996M33.2538 333.279L24.0247 335.916L16.7733 339.212L11.4996 341.19M33.2538 333.279H43.1421L39.1868 339.212L31.2761 344.486H22.0471H14.7957L11.4996 341.19M26.6616 494.458L29.2985 501.38V522.475M26.6616 494.458L22.0471 495.447L20.0694 501.38L18.0918 507.972V513.246L20.0694 517.86L22.0471 520.497L24.0247 522.475H29.2985M29.2985 522.475V526.43L27.7603 531.045M17.8129 565.324H13.4773L9.52194 567.302V572.575V578.508V583.123L14.1365 586.565M17.8129 565.324L14.1365 586.565M14.1365 586.565L13.4773 590.374L14.4539 595.648M14.4539 595.648L16.7733 608.173L20.786 617.402M14.4539 595.648L10.8404 597.626L9.52194 602.899V608.173L13.4773 614.765L14.4539 617.402L19.4102 618.721L20.786 617.402" stroke="white" stroke-width="2"/>
<path d="M134.114 488.196C134.114 493.293 130.573 497.425 126.204 497.425C121.835 497.425 118.293 493.293 118.293 488.196C118.293 483.099 121.835 478.967 126.204 478.967C130.573 478.967 134.114 483.099 134.114 488.196ZM121.818 488.196C121.818 491.021 123.782 493.312 126.204 493.312C128.625 493.312 130.589 491.021 130.589 488.196C130.589 485.37 128.625 483.08 126.204 483.08C123.782 483.08 121.818 485.37 121.818 488.196Z" fill="white"/>
<path d="M120.93 474.352C120.93 479.085 117.683 482.921 113.678 482.921C109.673 482.921 106.427 479.085 106.427 474.352C106.427 469.619 109.673 465.782 113.678 465.782C117.683 465.782 120.93 469.619 120.93 474.352ZM109.658 474.352C109.658 476.975 111.458 479.102 113.678 479.102C115.898 479.102 117.698 476.975 117.698 474.352C117.698 471.728 115.898 469.601 113.678 469.601C111.458 469.601 109.658 471.728 109.658 474.352Z" fill="white"/>
<path d="M105.108 471.715C105.108 476.448 101.862 480.285 97.8569 480.285C93.852 480.285 90.6055 476.448 90.6055 471.715C90.6055 466.982 93.852 463.145 97.8569 463.145C101.862 463.145 105.108 466.982 105.108 471.715ZM93.8371 471.715C93.8371 474.339 95.6368 476.465 97.8569 476.465C100.077 476.465 101.877 474.339 101.877 471.715C101.877 469.091 100.077 466.964 97.8569 466.964C95.6368 466.964 93.8371 469.091 93.8371 471.715Z" fill="white"/>
<path d="M114.339 458.53C114.339 462.535 111.682 465.782 108.406 465.782C105.129 465.782 102.473 462.535 102.473 458.53C102.473 454.525 105.129 451.279 108.406 451.279C111.682 451.279 114.339 454.525 114.339 458.53ZM105.117 458.53C105.117 460.75 106.589 462.55 108.406 462.55C110.222 462.55 111.695 460.75 111.695 458.53C111.695 456.31 110.222 454.51 108.406 454.51C106.589 454.51 105.117 456.31 105.117 458.53Z" fill="white"/>
<path d="M101.153 457.212C101.153 461.217 98.4968 464.464 95.2201 464.464C91.9434 464.464 89.2871 461.217 89.2871 457.212C89.2871 453.208 91.9434 449.961 95.2201 449.961C98.4968 449.961 101.153 453.208 101.153 457.212ZM91.9312 457.212C91.9312 459.432 93.4037 461.232 95.2201 461.232C97.0365 461.232 98.509 459.432 98.509 457.212C98.509 454.992 97.0365 453.193 95.2201 453.193C93.4037 453.193 91.9312 454.992 91.9312 457.212Z" fill="white"/>
<path d="M114.339 444.028C114.339 448.033 111.682 451.279 108.406 451.279C105.129 451.279 102.473 448.033 102.473 444.028C102.473 440.023 105.129 436.776 108.406 436.776C111.682 436.776 114.339 440.023 114.339 444.028ZM105.117 444.028C105.117 446.248 106.589 448.048 108.406 448.048C110.222 448.048 111.695 446.248 111.695 444.028C111.695 441.808 110.222 440.008 108.406 440.008C106.589 440.008 105.117 441.808 105.117 444.028Z" fill="white"/>
<path d="M102.471 441.391C102.471 445.395 99.8151 448.642 96.5384 448.642C93.2617 448.642 90.6055 445.395 90.6055 441.391C90.6055 437.386 93.2617 434.139 96.5384 434.139C99.8151 434.139 102.471 437.386 102.471 441.391ZM93.2495 441.391C93.2495 443.611 94.722 445.41 96.5384 445.41C98.3548 445.41 99.8273 443.611 99.8273 441.391C99.8273 439.171 98.3548 437.371 96.5384 437.371C94.722 437.371 93.2495 439.171 93.2495 441.391Z" fill="white"/>
<path d="M118.293 429.524C118.293 433.529 115.636 436.776 112.36 436.776C109.083 436.776 106.427 433.529 106.427 429.524C106.427 425.52 109.083 422.273 112.36 422.273C115.636 422.273 118.293 425.52 118.293 429.524ZM109.071 429.524C109.071 431.744 110.543 433.544 112.36 433.544C114.176 433.544 115.649 431.744 115.649 429.524C115.649 427.304 114.176 425.505 112.36 425.505C110.543 425.505 109.071 427.304 109.071 429.524Z" fill="white"/>
<path d="M105.109 426.888C105.109 430.893 102.453 434.14 99.1761 434.14C95.8994 434.14 93.2432 430.893 93.2432 426.888C93.2432 422.883 95.8994 419.637 99.1761 419.637C102.453 419.637 105.109 422.883 105.109 426.888ZM95.8872 426.888C95.8872 429.108 97.3597 430.908 99.1761 430.908C100.993 430.908 102.465 429.108 102.465 426.888C102.465 424.668 100.993 422.868 99.1761 422.868C97.3597 422.868 95.8872 424.668 95.8872 426.888Z" fill="white"/>
<path d="M126.204 417.659C126.204 421.663 123.548 424.91 120.271 424.91C116.994 424.91 114.338 421.663 114.338 417.659C114.338 413.654 116.994 410.407 120.271 410.407C123.548 410.407 126.204 413.654 126.204 417.659ZM116.982 417.659C116.982 419.879 118.454 421.678 120.271 421.678C122.087 421.678 123.56 419.879 123.56 417.659C123.56 415.439 122.087 413.639 120.271 413.639C118.454 413.639 116.982 415.439 116.982 417.659Z" fill="white"/>
<path d="M113.018 415.022C113.018 419.027 110.362 422.273 107.085 422.273C103.809 422.273 101.152 419.027 101.152 415.022C101.152 411.017 103.809 407.771 107.085 407.771C110.362 407.771 113.018 411.017 113.018 415.022ZM103.796 415.022C103.796 417.242 105.269 419.042 107.085 419.042C108.902 419.042 110.374 417.242 110.374 415.022C110.374 412.802 108.902 411.002 107.085 411.002C105.269 411.002 103.796 412.802 103.796 415.022Z" fill="white"/>
<path d="M134.115 407.77C134.115 411.411 131.754 414.363 128.841 414.363C125.929 414.363 123.567 411.411 123.567 407.77C123.567 404.13 125.929 401.178 128.841 401.178C131.754 401.178 134.115 404.13 134.115 407.77ZM125.918 407.77C125.918 409.789 127.227 411.425 128.841 411.425C130.456 411.425 131.765 409.789 131.765 407.77C131.765 405.752 130.456 404.116 128.841 404.116C127.227 404.116 125.918 405.752 125.918 407.77Z" fill="white"/>
<path d="M120.93 403.815C120.93 407.456 118.569 410.408 115.657 410.408C112.744 410.408 110.383 407.456 110.383 403.815C110.383 400.175 112.744 397.223 115.657 397.223C118.569 397.223 120.93 400.175 120.93 403.815ZM112.733 403.815C112.733 405.834 114.042 407.47 115.657 407.47C117.271 407.47 118.58 405.834 118.58 403.815C118.58 401.797 117.271 400.161 115.657 400.161C114.042 400.161 112.733 401.797 112.733 403.815Z" fill="white"/>
<path d="M109.063 485.559C109.063 489.2 106.702 492.151 103.789 492.151C100.877 492.151 98.5156 489.2 98.5156 485.559C98.5156 481.918 100.877 478.967 103.789 478.967C106.702 478.967 109.063 481.918 109.063 485.559ZM100.866 485.559C100.866 487.577 102.175 489.213 103.789 489.213C105.404 489.213 106.713 487.577 106.713 485.559C106.713 483.541 105.404 481.905 103.789 481.905C102.175 481.905 100.866 483.541 100.866 485.559Z" fill="white"/>
<path d="M139.388 397.223C139.388 400.136 137.617 402.497 135.433 402.497C133.248 402.497 131.478 400.136 131.478 397.223C131.478 394.311 133.248 391.95 135.433 391.95C137.617 391.95 139.388 394.311 139.388 397.223ZM133.24 397.223C133.24 398.838 134.222 400.147 135.433 400.147C136.644 400.147 137.625 398.838 137.625 397.223C137.625 395.609 136.644 394.3 135.433 394.3C134.222 394.3 133.24 395.609 133.24 397.223Z" fill="white"/>
<path d="M128.84 391.95C128.84 394.862 127.069 397.223 124.885 397.223C122.701 397.223 120.93 394.862 120.93 391.95C120.93 389.037 122.701 386.676 124.885 386.676C127.069 386.676 128.84 389.037 128.84 391.95ZM122.692 391.95C122.692 393.564 123.674 394.873 124.885 394.873C126.096 394.873 127.078 393.564 127.078 391.95C127.078 390.335 126.096 389.026 124.885 389.026C123.674 389.026 122.692 390.335 122.692 391.95Z" fill="white"/>
<path d="M116.975 490.832C116.975 493.745 115.204 496.106 113.02 496.106C110.835 496.106 109.064 493.745 109.064 490.832C109.064 487.92 110.835 485.559 113.02 485.559C115.204 485.559 116.975 487.92 116.975 490.832ZM110.827 490.832C110.827 492.447 111.809 493.756 113.02 493.756C114.231 493.756 115.212 492.447 115.212 490.832C115.212 489.218 114.231 487.909 113.02 487.909C111.809 487.909 110.827 489.218 110.827 490.832Z" fill="white"/>
<path d="M144.662 386.676C144.662 389.588 142.891 391.949 140.706 391.949C138.522 391.949 136.751 389.588 136.751 386.676C136.751 383.763 138.522 381.402 140.706 381.402C142.891 381.402 144.662 383.763 144.662 386.676ZM138.514 386.676C138.514 388.29 139.495 389.599 140.706 389.599C141.917 389.599 142.899 388.29 142.899 386.676C142.899 385.061 141.917 383.752 140.706 383.752C139.495 383.752 138.514 385.061 138.514 386.676Z" fill="white"/>
<path d="M136.751 384.039C136.751 386.952 134.981 389.313 132.796 389.313C130.612 389.313 128.841 386.952 128.841 384.039C128.841 381.127 130.612 378.766 132.796 378.766C134.981 378.766 136.751 381.127 136.751 384.039ZM130.604 384.039C130.604 385.654 131.585 386.963 132.796 386.963C134.007 386.963 134.989 385.654 134.989 384.039C134.989 382.425 134.007 381.116 132.796 381.116C131.585 381.116 130.604 382.425 130.604 384.039Z" fill="white"/>
<path d="M148.617 373.492C148.617 376.405 146.846 378.766 144.661 378.766C142.477 378.766 140.706 376.405 140.706 373.492C140.706 370.58 142.477 368.219 144.661 368.219C146.846 368.219 148.617 370.58 148.617 373.492ZM142.469 373.492C142.469 375.107 143.45 376.416 144.661 376.416C145.872 376.416 146.854 375.107 146.854 373.492C146.854 371.878 145.872 370.569 144.661 370.569C143.45 370.569 142.469 371.878 142.469 373.492Z" fill="white"/>
<path d="M140.707 373.492C140.707 376.405 138.936 378.766 136.751 378.766C134.567 378.766 132.796 376.405 132.796 373.492C132.796 370.58 134.567 368.219 136.751 368.219C138.936 368.219 140.707 370.58 140.707 373.492ZM134.559 373.492C134.559 375.107 135.54 376.416 136.751 376.416C137.962 376.416 138.944 375.107 138.944 373.492C138.944 371.878 137.962 370.569 136.751 370.569C135.54 370.569 134.559 371.878 134.559 373.492Z" fill="white"/>
<path d="M0.859375 475.497L6.09932 466.982L15.9242 477.462L21.8191 487.942L13.9592 491.872L6.09932 485.322L0.859375 475.497Z" fill="white"/>
<path d="M21.8191 498.422L26.4041 495.147L28.3691 523.312L23.7841 521.347L18.5442 514.142V508.902V504.317L21.8191 498.422Z" fill="white"/>
<path d="M21.8191 531.827H26.4041L21.8191 555.406L15.9242 552.786L13.9592 547.547V542.962L15.9242 535.757L21.8191 531.827Z" fill="white"/>
<path d="M10.6843 567.851L15.9242 565.231L13.9592 584.881L10.6843 581.606V567.851Z" fill="white"/>
<path d="M10.6843 604.531L13.9592 597.981L18.5442 616.976H15.9242L10.6843 609.771V604.531Z" fill="white"/>
<path d="M23.7841 630.076V625.491L33.609 637.935L26.4041 635.316L23.7841 630.076Z" fill="white"/>
<path d="M0.859375 475.497L6.09932 466.982L15.9242 477.462L21.8191 487.942L13.9592 491.872L6.09932 485.322L0.859375 475.497Z" stroke="white"/>
<path d="M21.8191 498.422L26.4041 495.147L28.3691 523.312L23.7841 521.347L18.5442 514.142V508.902V504.317L21.8191 498.422Z" stroke="white"/>
<path d="M21.8191 531.827H26.4041L21.8191 555.406L15.9242 552.786L13.9592 547.547V542.962L15.9242 535.757L21.8191 531.827Z" stroke="white"/>
<path d="M10.6843 567.851L15.9242 565.231L13.9592 584.881L10.6843 581.606V567.851Z" stroke="white"/>
<path d="M10.6843 604.531L13.9592 597.981L18.5442 616.976H15.9242L10.6843 609.771V604.531Z" stroke="white"/>
<path d="M23.7841 630.076V625.491L33.609 637.935L26.4041 635.316L23.7841 630.076Z" stroke="white"/>
<path d="M14.9947 344.956L12.2617 341.312L25.6231 335.239L34.7331 333.113H42.9322L39.8955 339.187L30.4818 344.956H14.9947Z" fill="url(#paint0_linear_110_255)" stroke="white"/>
<path d="M57.8434 334.019L59.8084 369.388L74.8732 376.593H93.213L122.033 369.388L97.143 386.418L122.033 376.593L126.618 366.113V349.739L122.033 344.499L115.483 328.779L112.208 307.819L115.483 291.444L126.618 277.689L139.062 265.9L153.472 264.59L138.408 273.104L131.203 280.309L126.618 295.374L123.998 307.164L126.618 318.954V328.779L131.203 339.914V345.809L133.984 350.458L143.647 356.162L150.197 368.33V374.794L147.577 369.388L141.027 358.253L137.098 364.803L134.478 369.388L132.463 372.893C132.3 375.576 131.203 374.732 131.203 376.593L126.618 383.798L113.518 394.933L103.693 401.483L89.938 418.513L83.3881 437.508V447.332L76.8382 444.712L46.7085 413.273L83.3881 437.508L82.0781 423.098L93.213 404.758V401.483H84.6981H72.9082L62.4284 394.933L65.7033 404.758V413.273L80.7682 427.028L76.8382 425.718L59.8084 413.273L51.2935 401.483L33.9798 372.132L51.2935 386.418V369.388V349.739L53.2585 341.879L57.8434 334.019Z" fill="white"/>
<path d="M0.859056 376.593L15.9239 397.553L34.9187 423.098L62.4284 444.712L80.7682 450.607L83.3881 459.122H65.7033L57.8434 464.362L53.2585 468.292L65.7033 484L74.8732 501.796L76.8382 515.5L65.7033 542.306L55.2234 567.851L46.7085 589.466V609.116L53.2585 628.11L62.4284 637.935C67.1681 644.401 71.3936 647.674 81.5104 653H57.8434L42.1236 644.485L31.6437 633.35L25.7488 629.938L14.6139 604.531L13.3039 592.741L15.9239 580.951L17.8889 559.991L29.0237 533.136V522.657L29.7971 501.796L25.7488 488.597L31.6437 493.182L25.7488 476L40.444 495L46.7085 506.937L38.8486 535.756L29.0237 559.991L21.1638 578.331V597.326L29.0237 618.286L34.9187 628.11L42.1236 637.935L53.2585 644.485L81.5104 653L68.3233 647.049L59.8084 641.726L49.1896 628.11L44.2464 614.348L41.2045 599.138L40.444 587L46.7085 570.62L53.2585 554.65L59.8084 542.306L65.7033 527.897L70.5 511L65.7033 493.182L56.5334 477.462L44.2464 461.87L34.9187 450.607L25.7488 437.508L17.8889 424.408L10.6839 408.033L0.859056 376.593Z" fill="white"/>
<path d="M131.203 497.767L133.168 481.392L138.408 488.597L147.577 481.392L149.53 471.629L149.968 466.863L148.207 455.905L147.577 453.227L144.302 450.607L142.449 454.645V459.122L141.027 464.362L139.062 468.292H133.168L125.308 460.432L123.998 450.607L131.203 433.578L139.062 423.098L150.197 404.758L156.092 389.693L153.472 365.668L163.297 376.593L167.882 359.563L158.712 344.499L151.507 327.469L147.577 313.059V294.719L153.472 286.204L167.882 280.309L177.052 282.929L184.912 288.824H177.052H167.882L158.712 294.719L154.492 306.329V318.119L158.712 325.504L165.5 336.5L173.122 352.5V358.253L177.5 365.5L180 372L174.5 376L168.21 387.073L184.912 389.693L203.252 394.933L217.007 404.758L227.486 423.098L224.212 444.712L234.036 437.508L236.001 419.823L227.486 401.483L218.972 389.693L200.632 379.868L175.087 376.593L181.637 371.353L192.922 372.893L203.252 376.593L212.422 379.868L219.627 383.798L224.212 387.073L234.036 397.553L243.861 414.583V429L234.036 447.332L217.007 453.227L213.732 455.847L203.252 464.362L212.422 448.642L217.007 433.578L213.732 418.513L207.837 409.998L198.667 404.758L188.842 401.483H177.052H167.882L154.5 409.998L163.297 397.553L153.472 409.998L142.449 426.373L131.425 442.748L129.421 450.607L134.478 458.067L137.406 461.87L137.098 447.332L143.11 441.337L147.577 451.983L148.207 455.905L150.197 464.362L149.968 466.863L150.197 468.292L149.099 476.319L149.53 471.629L147.577 481.392L141.027 493.182L131.203 497.767Z" fill="white"/>
<path d="M36.2287 329.925L45.3986 325.504H56.5334V331.399L45.3986 336.639L42.1236 339.914L32.9537 347.774L29.6787 351.704H22.4738L10.6839 349.739L7.40898 347.774L13.9589 354.323L18.5439 359.563L26.4038 362.183L42.1236 347.774L40.444 354.323L36.2287 358.253L32.9537 362.183L25.7488 372.132L26.4038 373.973L31.6437 388.383L24.4388 379.868L18.5439 373.973L11.3389 367.423L0.859056 351.704L-8.31084 339.914L-9.62083 322.229L-13.5508 294.719L-3.0709 277.689V292.099L0.859056 305.854L5.8417 288.098L10.6839 299.304L13.9589 302.579L28.3687 295.374H42.1236L45.3986 288.824L42.1236 286.204L56.5334 263.935L72.9082 215.091L70.2883 259.58L82.0781 229.22V203.02L71.5983 187.3L58.4984 174.201L34.9187 160.446L15.9239 155.861H-5.03588L-13.5508 154.551V137.521C-9.62083 137.521 -0.843925 138.831 2.82403 138.831C10.029 138.831 27.7138 143.416 36.2287 145.381L51.2935 151.276L70.9433 163.066L93.213 184.025L101.073 205.64L103.693 222.015L95.178 234.46L84.6981 245.595L71.5983 273.104L65.7033 288.824V299.304L74.8732 305.854L76.8382 316.334L74.8732 327.469L59.8084 336.639V327.469L64.3933 328.779L70.2883 325.504L71.5983 316.989L68.3233 307.819L58.4984 304.544L43.4336 299.959L31.6437 299.304L24.4388 302.579L7.40898 313.059L0.859056 318.954H10.6839L18.5439 313.059L24.4388 307.819L26.4038 305.854L34.9187 304.544L45.3986 305.854L53.2585 307.164C59.6443 309.582 61.7299 311.552 62.4284 316.334L51.2935 314.369H42.1236L34.9187 313.059L26.4038 316.334L19.8538 318.954L13.9589 322.229L2.82403 327.469L-1.10592 329.925L-3.0709 336.639L-1.10592 339.914L7.40898 341.879H11.3389L13.9589 344.499L19.1988 345.809H26.4038H29.6787L36.2287 341.879L38.8486 339.914L43.4336 334.019L41.4686 332.709L38.1936 333.364L34.9187 332.709L36.2287 329.925Z" fill="white"/>
<path d="M97.143 386.418H76.8382L59.8084 383.798L72.9082 394.933H93.213H95.178L122.033 376.593M97.143 386.418L122.033 369.388L93.213 376.593H74.8732L59.8084 369.388L57.8434 334.019L53.2585 341.879L51.2935 349.739V369.388V386.418L33.9798 372.132L51.2935 401.483L59.8084 413.273L76.8382 425.718L80.7682 427.028L65.7033 413.273V404.758L62.4284 394.933L72.9082 401.483H84.6981H93.213V404.758L82.0781 423.098L83.3881 437.508M97.143 386.418L122.033 376.593M122.033 376.593L126.618 366.113V349.739L122.033 344.499L115.483 328.779L112.208 307.819L115.483 291.444L126.618 277.689L139.062 265.9L153.472 264.59L138.408 273.104L131.203 280.309L126.618 295.374L123.998 307.164L126.618 318.954V328.779L131.203 339.914V345.809L133.984 350.458M122.033 376.593L113.518 394.933M113.518 394.933L103.693 401.483L89.938 418.513L83.3881 437.508M113.518 394.933L126.618 383.798L131.203 376.593C131.203 374.732 132.3 375.576 132.463 372.893M113.518 394.933L112.208 392.968M83.3881 437.508L46.7085 413.273L76.8382 444.712L83.3881 447.332V437.508ZM53.2585 468.292L57.8434 464.362L65.7033 459.122H83.3881L80.7682 450.607L62.4284 444.712L34.9187 423.098L15.9239 397.553L0.859056 376.593L10.6839 408.033L17.8889 424.408L25.7488 437.508L34.9187 450.607M53.2585 468.292L42.1236 455.847L34.9187 450.607M53.2585 468.292L65.7033 484L74.8732 501.796L76.8382 515.5L65.7033 542.306L55.2234 567.851L46.7085 589.466V609.116L53.2585 628.11L62.4284 637.935C67.1681 644.401 71.3936 647.674 81.5104 653M34.9187 450.607L44.2464 461.87L56.5334 477.462L65.7033 493.182L70.5 511L65.7033 527.897L59.8084 542.306L53.2585 554.65L46.7085 570.62L40.444 587L41.2045 599.138L44.2464 614.348L49.1896 628.11L59.8084 641.726L68.3233 647.049L81.5104 653M81.5104 653H57.8434L42.1236 644.485L31.6437 633.35L25.7488 629.938L14.6139 604.531L13.3039 592.741L15.9239 580.951L17.8889 559.991L29.0237 533.136V522.657L29.7971 501.796L25.7488 488.597L31.6437 493.182L25.7488 476L40.444 495L46.7085 506.937L38.8486 535.756L29.0237 559.991L21.1638 578.331V597.326L29.0237 618.286L34.9187 628.11L42.1236 637.935L53.2585 644.485L81.5104 653ZM147.577 481.392L141.027 493.182L131.203 497.767L133.168 481.392L138.408 488.597L147.577 481.392ZM147.577 481.392L150.197 468.292M150.197 468.292L147.577 451.983L143.11 441.337L137.098 447.332L137.406 461.87L134.478 458.067L129.421 450.607L131.425 442.748L142.449 426.373L153.472 409.998L163.297 397.553M150.197 468.292L149.099 476.319L150.197 464.362L147.577 453.227L144.302 450.607L142.449 454.645V459.122L141.027 464.362L139.062 468.292H133.168L125.308 460.432L123.998 450.607L131.203 433.578L139.062 423.098L150.197 404.758L156.092 389.693L153.472 365.668L163.297 376.593M70.2883 259.58L72.9082 215.091L56.5334 263.935L42.1236 286.204L45.3986 288.824L42.1236 295.374H28.3687L13.9589 302.579L10.6839 299.304L5.8417 288.098L0.859056 305.854L-3.0709 292.099V277.689L-13.5508 294.719L-9.62083 322.229L-8.31084 339.914L0.859056 351.704L11.3389 367.423L18.5439 373.973L24.4388 379.868L31.6437 388.383L26.4038 373.973L25.7488 372.132L32.9537 362.183L36.2287 358.253L40.444 354.323L42.1236 347.774L26.4038 362.183L18.5439 359.563L13.9589 354.323L7.40898 347.774L10.6839 349.739L22.4738 351.704H29.6787L32.9537 347.774L42.1236 339.914L45.3986 336.639L56.5334 331.399V325.504H45.3986L36.2287 329.925L34.9187 332.709L38.1936 333.364L41.4686 332.709L43.4336 334.019L38.8486 339.914L36.2287 341.879L29.6787 345.809H26.4038H19.1988L13.9589 344.499L11.3389 341.879H7.40898L-1.10592 339.914L-3.0709 336.639L-1.10592 329.925L2.82403 327.469L13.9589 322.229L19.8538 318.954L26.4038 316.334L34.9187 313.059L42.1236 314.369H51.2935L62.4284 316.334C61.7299 311.552 59.6443 309.582 53.2585 307.164L45.3986 305.854L34.9187 304.544L26.4038 305.854L24.4388 307.819L18.5439 313.059L10.6839 318.954H0.859056L7.40898 313.059L24.4388 302.579L31.6437 299.304L43.4336 299.959L58.4984 304.544L68.3233 307.819L71.5983 316.989L70.2883 325.504L64.3933 328.779L59.8084 327.469V336.639L74.8732 327.469L76.8382 316.334L74.8732 305.854L65.7033 299.304V288.824M70.2883 259.58L63.7383 269.174M70.2883 259.58L82.0781 229.22V203.02L71.5983 187.3L58.4984 174.201L34.9187 160.446L15.9239 155.861H-5.03588L-13.5508 154.551V137.521C-9.62083 137.521 -0.843925 138.831 2.82403 138.831C10.029 138.831 27.7138 143.416 36.2287 145.381L51.2935 151.276L70.9433 163.066L93.213 184.025L101.073 205.64L103.693 222.015L95.178 234.46L84.6981 245.595L71.5983 273.104M63.7383 269.174L70.2883 273.104L56.5334 282.929M63.7383 269.174L71.5983 273.104M56.5334 282.929L65.7033 288.824M56.5334 282.929L71.5983 273.104M65.7033 288.824L71.5983 273.104M133.984 350.458C132.019 350.458 134.74 357.467 133.168 359.563M133.984 350.458L143.647 356.162M133.168 359.563C132.205 360.847 132.722 368.65 132.463 372.893M133.168 359.563L143.647 356.162M163.297 376.593L167.882 359.563L158.712 344.499L151.507 327.469L147.577 313.059V294.719L153.472 286.204L167.882 280.309L177.052 282.929L184.912 288.824H177.052H167.882L158.712 294.719L154.492 306.329V318.119L158.712 325.504L165.5 336.5L173.122 352.5V358.253M163.297 376.593V389.693V397.553M163.297 397.553L168.21 387.073M163.297 397.553L154.5 409.998L167.882 401.483H177.052H188.842L198.667 404.758L207.837 409.998L213.732 418.513L217.007 433.578L212.422 448.642L203.252 464.362L213.732 455.847L217.007 453.227M174.5 376L173.122 358.253M174.5 376L168.21 387.073M174.5 376L180 372L177.5 365.5L173.122 358.253M143.647 356.162L150.197 368.33V374.794L147.577 369.388L141.027 358.253L137.098 364.803L134.478 369.388L132.463 372.893M168.21 387.073L184.912 389.693L203.252 394.933L217.007 404.758L227.486 423.098L224.212 444.712M224.212 444.712L217.007 453.227M224.212 444.712L234.036 437.508L236.001 419.823L227.486 401.483L218.972 389.693L200.632 379.868L175.087 376.593L181.637 371.353L192.922 372.893L203.252 376.593L212.422 379.868L219.627 383.798L224.212 387.073L234.036 397.553L243.861 414.583V429L234.036 447.332L217.007 453.227" stroke="white"/>
<path d="M14.7294 245.619C14.202 249.118 14.2296 252.603 14.8081 255.545C15.3866 258.487 16.4843 260.726 17.9347 261.921C19.3852 263.117 21.1092 263.204 22.8451 262.17C24.581 261.136 26.234 259.036 27.5535 256.19C28.8729 253.344 29.7866 249.907 30.1561 246.4C30.5255 242.893 30.3304 239.507 29.6004 236.758C28.8705 234.008 27.6455 232.044 26.1113 231.163C24.5771 230.283 22.8175 230.534 21.0995 231.878L21.3456 234.818C22.7243 233.739 24.1365 233.538 25.3677 234.244C26.599 234.951 27.5821 236.527 28.1679 238.734C28.7537 240.941 28.9103 243.658 28.6138 246.472C28.3173 249.287 27.584 252.045 26.5251 254.329C25.4662 256.613 24.1396 258.298 22.7465 259.128C21.3533 259.959 19.9698 259.888 18.8058 258.929C17.6417 257.969 16.7607 256.173 16.2965 253.812C15.8323 251.45 15.8101 248.654 16.2334 245.845L14.7294 245.619Z" fill="white"/>
<path d="M-9.79177 222.104C-9.22643 223.826 -8.41042 225.414 -7.46758 226.626C-6.52473 227.839 -5.50651 228.61 -4.56742 228.822C-3.62833 229.035 -2.81962 228.677 -2.26402 227.804C-1.70841 226.931 -1.43624 225.589 -1.48879 223.983C-1.54134 222.377 -1.91575 220.594 -2.55521 218.905C-3.19467 217.215 -4.06427 215.712 -5.03206 214.622C-5.99984 213.533 -7.013 212.917 -7.91777 212.868C-8.82255 212.819 -9.56957 213.339 -10.0455 214.35L-9.25518 215.638C-8.87325 214.827 -8.27374 214.409 -7.54762 214.448C-6.8215 214.488 -6.00841 214.982 -5.23172 215.857C-4.45503 216.731 -3.75715 217.938 -3.24396 219.294C-2.73077 220.649 -2.43029 222.08 -2.38811 223.369C-2.34594 224.658 -2.56437 225.735 -3.01026 226.435C-3.45616 227.136 -4.10517 227.423 -4.85883 227.253C-5.61249 227.082 -6.42965 226.463 -7.18632 225.49C-7.94299 224.517 -8.59786 223.243 -9.05157 221.861L-9.79177 222.104Z" fill="white"/>
<path d="M11.892 198.25C11.6048 200.39 11.7226 202.499 12.2204 204.133C12.7182 205.766 13.5572 206.797 14.5604 207.007C15.5637 207.216 16.6527 206.589 17.5979 205.257C18.5431 203.925 19.2706 201.993 19.627 199.867C19.9834 197.742 19.9408 195.589 19.5082 193.864C19.0756 192.138 18.2868 190.974 17.3082 190.618C16.3296 190.261 15.2376 190.74 14.2625 191.953C13.2875 193.166 12.5055 195.018 12.0816 197.119L12.8163 197.446C13.1565 195.76 13.7841 194.273 14.5666 193.3C15.3491 192.326 16.2255 191.942 17.0108 192.228C17.7962 192.514 18.4292 193.448 18.7764 194.833C19.1236 196.218 19.1578 197.946 18.8718 199.651C18.5858 201.357 18.0019 202.908 17.2433 203.977C16.4848 205.046 15.6108 205.549 14.8057 205.381C14.0006 205.213 13.3272 204.386 12.9277 203.075C12.5282 201.764 12.4337 200.071 12.6641 198.353L11.892 198.25Z" fill="white"/>
</g>
<defs>
<linearGradient id="paint0_linear_110_255" x1="30.1781" y1="328.558" x2="3.75902" y2="354.066" gradientUnits="userSpaceOnUse">
<stop stop-color="#6A4949" stop-opacity="0.28125"/>
<stop offset="0.419792" stop-color="#E91515"/>
<stop offset="0.753125" stop-color="#300101" stop-opacity="0"/>
</linearGradient>
<clipPath id="clip0_110_255">
<rect width="1440" height="788" fill="white"/>
</clipPath>
</defs>
</svg>
