<svg width="150" height="150" viewBox="0 0 150 150" fill="none" xmlns="http://www.w3.org/2000/svg">
<path fill-rule="evenodd" clip-rule="evenodd" d="M150 0H0V51.4286H12.8571V12.8571H137.143V137.143H101.02V150H150V0ZM49.5919 150V137.143H12.8571V102.857H0V150H49.5919Z" fill="#FFFEFE"/>
<path d="M67.5304 16.6293C62.5567 18.7086 55.1046 24.4826 52.3979 30.2791C49.6911 36.0756 47.1264 42.0816 47.2467 48.323C47.8324 55.6406 49.0266 62.456 56.2061 70.9229C63.3855 79.3899 68.1684 78.1558 68.1684 78.1558L77.6032 66.4658C71.492 66.3552 69.6366 68.5477 64.4647 64.0021C58.7757 59.0019 57.2932 54.1632 56.3232 48.4872C55.6778 44.7106 55.3483 40.7047 56.9225 34.9368C60.9823 20.0616 63.8489 18.1684 67.5304 16.6293Z" fill="#FFFEFE"/>
<path d="M48.6692 96.7417C49.4188 103.432 52.3746 109.682 57.0702 114.506C61.7658 119.33 67.9338 122.453 74.6013 123.383C81.2687 124.313 88.0559 122.996 93.8921 119.641C99.7283 116.285 104.281 111.082 106.832 104.852C109.384 98.6226 109.788 91.7207 107.982 85.2356C106.175 78.7505 102.261 73.0514 96.857 69.0375C91.4526 65.0235 84.8656 62.9233 78.1352 63.068C71.4048 63.2128 64.9142 65.5944 59.6874 69.837L66.6149 78.3716C69.9459 75.6678 74.0823 74.1501 78.3716 74.0578C82.6608 73.9656 86.8586 75.304 90.3028 77.8621C93.747 80.4201 96.2414 84.0521 97.3925 88.185C98.5436 92.3179 98.2859 96.7164 96.66 100.687C95.0341 104.657 92.1326 107.973 88.4133 110.111C84.694 112.249 80.3685 113.088 76.1194 112.496C71.8703 111.903 67.9395 109.913 64.947 106.839C61.9546 103.764 60.0709 99.7813 59.5932 95.5177L48.6692 96.7417Z" fill="#FFFEFE"/>
<circle cx="58.8887" cy="60.6124" r="4.28571" fill="#FFFEFE"/>
<circle cx="53.9908" cy="51.4288" r="4.28571" fill="#FFFEFE"/>
<circle cx="53.3785" cy="42.8571" r="3.67347" fill="#FFFEFE"/>
<circle cx="55.5215" cy="34.592" r="2.7551" fill="#FFFEFE"/>
<rect x="17.1941" y="134.122" width="9.79592" height="124.898" transform="rotate(-90.2996 17.1941 134.122)" fill="#FFFEFE"/>
<rect x="17.1428" y="9.18359" width="9.79592" height="129.184" fill="#FFFEFE"/>
</svg>
