<svg width="108" height="24" viewBox="0 0 108 24" fill="none" xmlns="http://www.w3.org/2000/svg">
<path d="M0.327625 0.599998H5.54363C7.35696 0.599998 8.67963 1.02667 9.51163 1.88C10.3436 2.712 10.7596 4.00267 10.7596 5.752V7.128C10.7596 9.45333 9.99163 10.9253 8.45563 11.544V11.608C9.30896 11.864 9.90629 12.3867 10.2476 13.176C10.6103 13.9653 10.7916 15.0213 10.7916 16.344V20.28C10.7916 20.92 10.813 21.4427 10.8556 21.848C10.8983 22.232 11.005 22.616 11.1756 23H7.59163C7.46363 22.6373 7.37829 22.296 7.33563 21.976C7.29296 21.656 7.27163 21.08 7.27163 20.248V16.152C7.27163 15.128 7.10096 14.4133 6.75963 14.008C6.43963 13.6027 5.87429 13.4 5.06363 13.4H3.84763V23H0.327625V0.599998ZM5.12763 10.2C5.83163 10.2 6.35429 10.0187 6.69563 9.656C7.05829 9.29333 7.23962 8.68533 7.23962 7.832V6.104C7.23962 5.29333 7.09029 4.70667 6.79163 4.344C6.51429 3.98133 6.06629 3.8 5.44763 3.8H3.84763V10.2H5.12763ZM13.2339 0.599998H22.8339V3.8H16.7539V9.72H21.5859V12.92H16.7539V19.8H22.8339V23H13.2339V0.599998ZM29.4974 23.32C27.7907 23.32 26.5 22.84 25.6254 21.88C24.7507 20.8987 24.3134 19.5013 24.3134 17.688V16.408H27.6414V17.944C27.6414 19.3947 28.2494 20.12 29.4654 20.12C30.0627 20.12 30.5107 19.9493 30.8094 19.608C31.1294 19.2453 31.2894 18.6693 31.2894 17.88C31.2894 16.9413 31.076 16.12 30.6494 15.416C30.2227 14.6907 29.4334 13.8267 28.2814 12.824C26.8307 11.544 25.8174 10.392 25.2414 9.368C24.6654 8.32267 24.3774 7.14933 24.3774 5.848C24.3774 4.07733 24.8254 2.712 25.7214 1.752C26.6174 0.770665 27.9187 0.279999 29.6254 0.279999C31.3107 0.279999 32.58 0.770665 33.4334 1.752C34.308 2.712 34.7454 4.09867 34.7454 5.912V6.84H31.4174V5.688C31.4174 4.92 31.268 4.36533 30.9694 4.024C30.6707 3.66133 30.2334 3.48 29.6574 3.48C28.484 3.48 27.8974 4.19467 27.8974 5.624C27.8974 6.43467 28.1107 7.192 28.5374 7.896C28.9854 8.6 29.7854 9.45333 30.9374 10.456C32.4094 11.736 33.4227 12.8987 33.9774 13.944C34.532 14.9893 34.8094 16.216 34.8094 17.624C34.8094 19.4587 34.3507 20.8667 33.4334 21.848C32.5374 22.8293 31.2254 23.32 29.4974 23.32ZM36.8276 0.599998H40.3476V23H36.8276V0.599998ZM42.9839 0.599998H46.5039V19.8H52.2959V23H42.9839V0.599998ZM53.9839 0.599998H57.5039V23H53.9839V0.599998ZM60.1401 0.599998H69.7401V3.8H63.6601V9.72H68.4921V12.92H63.6601V19.8H69.7401V23H60.1401V0.599998ZM71.7651 0.599998H76.1811L79.6051 14.008H79.6691V0.599998H82.8051V23H79.1891L74.9651 6.648H74.9011V23H71.7651V0.599998ZM90.3814 23.32C88.696 23.32 87.4054 22.84 86.5094 21.88C85.6347 20.92 85.1974 19.5653 85.1974 17.816V5.784C85.1974 4.03467 85.6347 2.68 86.5094 1.72C87.4054 0.759999 88.696 0.279999 90.3814 0.279999C92.0667 0.279999 93.3467 0.759999 94.2214 1.72C95.1174 2.68 95.5654 4.03467 95.5654 5.784V8.152H92.2374V5.56C92.2374 4.17333 91.6507 3.48 90.4774 3.48C89.304 3.48 88.7174 4.17333 88.7174 5.56V18.072C88.7174 19.4373 89.304 20.12 90.4774 20.12C91.6507 20.12 92.2374 19.4373 92.2374 18.072V14.648H95.5654V17.816C95.5654 19.5653 95.1174 20.92 94.2214 21.88C93.3467 22.84 92.0667 23.32 90.3814 23.32ZM97.6714 0.599998H107.271V3.8H101.191V9.72H106.023V12.92H101.191V19.8H107.271V23H97.6714V0.599998Z" fill="url(#paint0_linear_177_217)"/>
<defs>
<linearGradient id="paint0_linear_177_217" x1="53.5" y1="-6" x2="53.5" y2="32" gradientUnits="userSpaceOnUse">
<stop stop-color="white"/>
<stop offset="1" stop-color="#A38DB5" stop-opacity="0.42"/>
</linearGradient>
</defs>
</svg>
