<svg width="187" height="109" viewBox="0 0 187 109" fill="none" xmlns="http://www.w3.org/2000/svg">
<path d="M9.89088 77C9.12288 77 8.64288 76.52 8.64288 75.752V10.28C8.64288 9.992 8.83488 9.8 9.12288 9.8H27.1709C29.8589 9.8 31.4909 9.8 32.6429 9.89599C55.6829 12.008 58.6589 38.6 41.9549 47.528C40.5149 48.296 40.1309 49.544 40.9949 50.792L58.6589 75.944C59.1389 76.616 58.8509 77 58.0829 77H46.8509C46.0829 77 45.3149 76.616 44.8349 75.944L27.6509 51.176C27.2669 50.6 26.8829 49.736 26.8829 48.968V40.616C26.8829 39.848 27.3629 39.368 28.1309 39.368H29.8589C44.4509 39.368 44.3549 20.648 29.8589 20.648H22.8509C21.2189 20.648 20.1629 21.8 20.1629 23.432V75.752C20.1629 76.52 19.6829 77 18.9149 77H9.89088ZM62.8491 31.112C62.8491 30.344 63.3291 29.864 64.0971 29.864H73.1211C73.8891 29.864 74.3691 30.344 74.3691 31.112V75.752C74.3691 76.52 73.8891 77 73.1211 77H64.0971C63.3291 77 62.8491 76.52 62.8491 75.752V31.112ZM62.8491 19.304V11.048C62.8491 10.28 63.3291 9.8 64.0971 9.8H73.1211C73.8891 9.8 74.3691 10.28 74.3691 11.048V19.304C74.3691 20.072 73.8891 20.552 73.1211 20.552H64.0971C63.3291 20.552 62.8491 20.072 62.8491 19.304ZM80.6534 69.032C80.1734 68.456 80.2694 67.784 80.8454 67.304L87.8534 61.832C88.4294 61.448 89.1014 61.448 89.5814 62.024C93.8054 66.92 100.237 68.456 106.477 68.456C111.565 68.456 119.149 66.536 119.149 60.2C119.149 47.24 81.8054 48.68 81.8054 26.12C81.8054 25.448 82.3814 24.872 83.1494 24.872H91.8854C92.6534 24.872 93.1334 25.352 93.2294 26.12C94.9574 39.944 130.477 37.736 130.477 60.584C130.477 73.64 117.613 79.784 106.093 79.784C96.5894 79.784 86.7974 76.52 80.6534 69.032ZM92.4614 11.048C92.0774 10.472 92.2694 9.704 92.9414 9.41599C96.4934 7.88 100.621 7.016 104.845 7.016C113.101 7.016 121.165 10.76 127.501 16.04C128.077 16.52 128.077 17.288 127.597 17.768L121.741 24.392C121.165 24.968 120.493 24.968 120.013 24.488C115.693 20.648 110.317 18.344 104.461 18.344C102.541 18.344 100.333 18.536 98.4134 19.208C97.6454 19.496 97.0694 19.304 96.6854 18.632L92.4614 11.048ZM134.382 47.528V39.272C134.382 38.504 134.862 38.024 135.63 38.024H176.622C177.39 38.024 177.87 38.504 177.87 39.272V47.528C177.87 48.296 177.39 48.776 176.622 48.776H135.63C134.862 48.776 134.382 48.296 134.382 47.528ZM134.382 67.496C134.382 66.728 134.862 66.248 135.63 66.248H176.622C177.39 66.248 177.87 66.728 177.87 67.496V75.752C177.87 76.52 177.39 77 176.622 77H135.63C134.862 77 134.382 76.52 134.382 75.752V67.496ZM135.63 20.552C134.862 20.552 134.382 20.072 134.382 19.304V11.048C134.382 10.28 134.862 9.8 135.63 9.8H176.622C177.39 9.8 177.87 10.28 177.87 11.048V19.304C177.87 20.072 177.39 20.552 176.622 20.552H135.63Z" fill="url(#paint0_linear_178_227)"/>
<path d="M8.73087 80C7.96287 80 7.48287 79.52 7.48287 78.752V13.28C7.48287 12.992 7.67487 12.8 7.96287 12.8H26.0109C28.6989 12.8 30.3309 12.8 31.4829 12.896C54.5229 15.008 57.4989 41.6 40.7949 50.528C39.3549 51.296 38.9709 52.544 39.8349 53.792L57.4989 78.944C57.9789 79.616 57.6909 80 56.9229 80H45.6909C44.9229 80 44.1549 79.616 43.6749 78.944L26.4909 54.176C26.1069 53.6 25.7229 52.736 25.7229 51.968V43.616C25.7229 42.848 26.2029 42.368 26.9709 42.368H28.6989C43.2909 42.368 43.1949 23.648 28.6989 23.648H21.6909C20.0589 23.648 19.0029 24.8 19.0029 26.432V78.752C19.0029 79.52 18.5229 80 17.7549 80H8.73087ZM63.1291 34.112C63.1291 33.344 63.6091 32.864 64.3771 32.864H73.4011C74.1691 32.864 74.6491 33.344 74.6491 34.112V78.752C74.6491 79.52 74.1691 80 73.4011 80H64.3771C63.6091 80 63.1291 79.52 63.1291 78.752V34.112ZM63.1291 22.304V14.048C63.1291 13.28 63.6091 12.8 64.3771 12.8H73.4011C74.1691 12.8 74.6491 13.28 74.6491 14.048V22.304C74.6491 23.072 74.1691 23.552 73.4011 23.552H64.3771C63.6091 23.552 63.1291 23.072 63.1291 22.304ZM82.3734 72.032C81.8934 71.456 81.9894 70.784 82.5654 70.304L89.5734 64.832C90.1494 64.448 90.8214 64.448 91.3014 65.024C95.5254 69.92 101.957 71.456 108.197 71.456C113.285 71.456 120.869 69.536 120.869 63.2C120.869 50.24 83.5254 51.68 83.5254 29.12C83.5254 28.448 84.1014 27.872 84.8694 27.872H93.6054C94.3734 27.872 94.8534 28.352 94.9494 29.12C96.6774 42.944 132.197 40.736 132.197 63.584C132.197 76.64 119.333 82.784 107.813 82.784C98.3094 82.784 88.5174 79.52 82.3734 72.032ZM94.1814 14.048C93.7974 13.472 93.9894 12.704 94.6614 12.416C98.2134 10.88 102.341 10.016 106.565 10.016C114.821 10.016 122.885 13.76 129.221 19.04C129.797 19.52 129.797 20.288 129.317 20.768L123.461 27.392C122.885 27.968 122.213 27.968 121.733 27.488C117.413 23.648 112.037 21.344 106.181 21.344C104.261 21.344 102.053 21.536 100.133 22.208C99.3654 22.496 98.7894 22.304 98.4054 21.632L94.1814 14.048ZM137.542 50.528V42.272C137.542 41.504 138.022 41.024 138.79 41.024H179.782C180.55 41.024 181.03 41.504 181.03 42.272V50.528C181.03 51.296 180.55 51.776 179.782 51.776H138.79C138.022 51.776 137.542 51.296 137.542 50.528ZM137.542 70.496C137.542 69.728 138.022 69.248 138.79 69.248H179.782C180.55 69.248 181.03 69.728 181.03 70.496V78.752C181.03 79.52 180.55 80 179.782 80H138.79C138.022 80 137.542 79.52 137.542 78.752V70.496ZM138.79 23.552C138.022 23.552 137.542 23.072 137.542 22.304V14.048C137.542 13.28 138.022 12.8 138.79 12.8H179.782C180.55 12.8 181.03 13.28 181.03 14.048V22.304C181.03 23.072 180.55 23.552 179.782 23.552H138.79Z" fill="url(#paint1_linear_178_227)"/>
<defs>
<linearGradient id="paint0_linear_178_227" x1="92.7868" y1="7.38788" x2="92.7868" y2="98.2909" gradientUnits="userSpaceOnUse">
<stop offset="0.192392" stop-color="#9F9494"/>
<stop offset="1" stop-color="#6D6C6C" stop-opacity="0"/>
</linearGradient>
<linearGradient id="paint1_linear_178_227" x1="93.7931" y1="10.3879" x2="93.7931" y2="101.291" gradientUnits="userSpaceOnUse">
<stop offset="0.192392" stop-color="white"/>
<stop offset="1" stop-color="white" stop-opacity="0"/>
</linearGradient>
</defs>
</svg>
