<svg width="266" height="24" viewBox="0 0 266 24" fill="none" xmlns="http://www.w3.org/2000/svg">
<path d="M5.63214 23.32C3.92547 23.32 2.63481 22.84 1.76014 21.88C0.885474 20.8987 0.448141 19.5013 0.448141 17.688V16.408H3.77614V17.944C3.77614 19.3947 4.38414 20.12 5.60014 20.12C6.19747 20.12 6.64547 19.9493 6.94414 19.608C7.26414 19.2453 7.42414 18.6693 7.42414 17.88C7.42414 16.9413 7.21081 16.12 6.78414 15.416C6.35747 14.6907 5.56814 13.8267 4.41614 12.824C2.96547 11.544 1.95214 10.392 1.37614 9.368C0.800141 8.32267 0.512141 7.14933 0.512141 5.848C0.512141 4.07733 0.960141 2.712 1.85614 1.752C2.75214 0.770665 4.05347 0.279999 5.76014 0.279999C7.44547 0.279999 8.71481 0.770665 9.56814 1.752C10.4428 2.712 10.8801 4.09867 10.8801 5.912V6.84H7.55214V5.688C7.55214 4.92 7.40281 4.36533 7.10414 4.024C6.80547 3.66133 6.36814 3.48 5.79214 3.48C4.61881 3.48 4.03214 4.19467 4.03214 5.624C4.03214 6.43467 4.24547 7.192 4.67214 7.896C5.12014 8.6 5.92014 9.45333 7.07214 10.456C8.54414 11.736 9.55747 12.8987 10.1121 13.944C10.6668 14.9893 10.9441 16.216 10.9441 17.624C10.9441 19.4587 10.4855 20.8667 9.56814 21.848C8.67214 22.8293 7.36014 23.32 5.63214 23.32ZM18.0824 23.32C16.3757 23.32 15.0744 22.84 14.1784 21.88C13.2824 20.8987 12.8344 19.5013 12.8344 17.688V0.599998H16.3544V17.944C16.3544 18.712 16.5037 19.2667 16.8024 19.608C17.1224 19.9493 17.5704 20.12 18.1464 20.12C18.7224 20.12 19.1597 19.9493 19.4584 19.608C19.7784 19.2667 19.9384 18.712 19.9384 17.944V0.599998H23.3304V17.688C23.3304 19.5013 22.8824 20.8987 21.9864 21.88C21.0904 22.84 19.7891 23.32 18.0824 23.32ZM25.8374 0.599998H31.0214C32.7707 0.599998 34.0827 1.06933 34.9574 2.008C35.8321 2.94667 36.2694 4.32267 36.2694 6.136V8.344C36.2694 10.1573 35.8321 11.5333 34.9574 12.472C34.0827 13.4107 32.7707 13.88 31.0214 13.88H29.3574V23H25.8374V0.599998ZM31.0214 10.68C31.5974 10.68 32.0241 10.52 32.3014 10.2C32.6001 9.88 32.7494 9.336 32.7494 8.568V5.912C32.7494 5.144 32.6001 4.6 32.3014 4.28C32.0241 3.96 31.5974 3.8 31.0214 3.8H29.3574V10.68H31.0214ZM38.1811 0.599998H43.3651C45.1145 0.599998 46.4265 1.06933 47.3011 2.008C48.1758 2.94667 48.6131 4.32267 48.6131 6.136V8.344C48.6131 10.1573 48.1758 11.5333 47.3011 12.472C46.4265 13.4107 45.1145 13.88 43.3651 13.88H41.7011V23H38.1811V0.599998ZM43.3651 10.68C43.9411 10.68 44.3678 10.52 44.6451 10.2C44.9438 9.88 45.0931 9.336 45.0931 8.568V5.912C45.0931 5.144 44.9438 4.6 44.6451 4.28C44.3678 3.96 43.9411 3.8 43.3651 3.8H41.7011V10.68H43.3651ZM55.6129 23.32C53.8849 23.32 52.5622 22.8293 51.6449 21.848C50.7276 20.8667 50.2689 19.48 50.2689 17.688V5.912C50.2689 4.12 50.7276 2.73333 51.6449 1.752C52.5622 0.770665 53.8849 0.279999 55.6129 0.279999C57.3409 0.279999 58.6636 0.770665 59.5809 1.752C60.4982 2.73333 60.9569 4.12 60.9569 5.912V17.688C60.9569 19.48 60.4982 20.8667 59.5809 21.848C58.6636 22.8293 57.3409 23.32 55.6129 23.32ZM55.6129 20.12C56.8289 20.12 57.4369 19.384 57.4369 17.912V5.688C57.4369 4.216 56.8289 3.48 55.6129 3.48C54.3969 3.48 53.7889 4.216 53.7889 5.688V17.912C53.7889 19.384 54.3969 20.12 55.6129 20.12ZM63.3374 0.599998H68.5534C70.3667 0.599998 71.6894 1.02667 72.5214 1.88C73.3534 2.712 73.7694 4.00267 73.7694 5.752V7.128C73.7694 9.45333 73.0014 10.9253 71.4654 11.544V11.608C72.3187 11.864 72.9161 12.3867 73.2574 13.176C73.6201 13.9653 73.8014 15.0213 73.8014 16.344V20.28C73.8014 20.92 73.8227 21.4427 73.8654 21.848C73.9081 22.232 74.0147 22.616 74.1854 23H70.6014C70.4734 22.6373 70.3881 22.296 70.3454 21.976C70.3027 21.656 70.2814 21.08 70.2814 20.248V16.152C70.2814 15.128 70.1107 14.4133 69.7694 14.008C69.4494 13.6027 68.8841 13.4 68.0734 13.4H66.8574V23H63.3374V0.599998ZM68.1374 10.2C68.8414 10.2 69.3641 10.0187 69.7054 9.656C70.0681 9.29333 70.2494 8.68533 70.2494 7.832V6.104C70.2494 5.29333 70.1001 4.70667 69.8014 4.344C69.5241 3.98133 69.0761 3.8 68.4574 3.8H66.8574V10.2H68.1374ZM78.9331 3.8H75.2531V0.599998H86.1331V3.8H82.4531V23H78.9331V3.8ZM92.9624 0.599998H102.274V3.8H96.4824V10.04H101.026V13.24H96.4824V23H92.9624V0.599998ZM109.05 23.32C107.322 23.32 106 22.8293 105.082 21.848C104.165 20.8667 103.706 19.48 103.706 17.688V5.912C103.706 4.12 104.165 2.73333 105.082 1.752C106 0.770665 107.322 0.279999 109.05 0.279999C110.778 0.279999 112.101 0.770665 113.018 1.752C113.936 2.73333 114.394 4.12 114.394 5.912V17.688C114.394 19.48 113.936 20.8667 113.018 21.848C112.101 22.8293 110.778 23.32 109.05 23.32ZM109.05 20.12C110.266 20.12 110.874 19.384 110.874 17.912V5.688C110.874 4.216 110.266 3.48 109.05 3.48C107.834 3.48 107.226 4.216 107.226 5.688V17.912C107.226 19.384 107.834 20.12 109.05 20.12ZM116.775 0.599998H121.991C123.804 0.599998 125.127 1.02667 125.959 1.88C126.791 2.712 127.207 4.00267 127.207 5.752V7.128C127.207 9.45333 126.439 10.9253 124.903 11.544V11.608C125.756 11.864 126.354 12.3867 126.695 13.176C127.058 13.9653 127.239 15.0213 127.239 16.344V20.28C127.239 20.92 127.26 21.4427 127.303 21.848C127.346 22.232 127.452 22.616 127.623 23H124.039C123.911 22.6373 123.826 22.296 123.783 21.976C123.74 21.656 123.719 21.08 123.719 20.248V16.152C123.719 15.128 123.548 14.4133 123.207 14.008C122.887 13.6027 122.322 13.4 121.511 13.4H120.295V23H116.775V0.599998ZM121.575 10.2C122.279 10.2 122.802 10.0187 123.143 9.656C123.506 9.29333 123.687 8.68533 123.687 7.832V6.104C123.687 5.29333 123.538 4.70667 123.239 4.344C122.962 3.98133 122.514 3.8 121.895 3.8H120.295V10.2H121.575ZM134.806 0.599998H144.406V3.8H138.326V9.72H143.158V12.92H138.326V19.8H144.406V23H134.806V0.599998ZM146.431 0.599998H151.455L153.695 16.632H153.759L155.999 0.599998H161.023V23H157.695V6.04H157.631L155.071 23H152.127L149.567 6.04H149.503V23H146.431V0.599998ZM163.65 0.599998H173.25V3.8H167.17V9.72H172.002V12.92H167.17V19.8H173.25V23H163.65V0.599998ZM175.275 0.599998H180.491C182.304 0.599998 183.627 1.02667 184.459 1.88C185.291 2.712 185.707 4.00267 185.707 5.752V7.128C185.707 9.45333 184.939 10.9253 183.403 11.544V11.608C184.256 11.864 184.854 12.3867 185.195 13.176C185.558 13.9653 185.739 15.0213 185.739 16.344V20.28C185.739 20.92 185.76 21.4427 185.803 21.848C185.846 22.232 185.952 22.616 186.123 23H182.539C182.411 22.6373 182.326 22.296 182.283 21.976C182.24 21.656 182.219 21.08 182.219 20.248V16.152C182.219 15.128 182.048 14.4133 181.707 14.008C181.387 13.6027 180.822 13.4 180.011 13.4H178.795V23H175.275V0.599998ZM180.075 10.2C180.779 10.2 181.302 10.0187 181.643 9.656C182.006 9.29333 182.187 8.68533 182.187 7.832V6.104C182.187 5.29333 182.038 4.70667 181.739 4.344C181.462 3.98133 181.014 3.8 180.395 3.8H178.795V10.2H180.075ZM193.173 23.32C191.466 23.32 190.165 22.84 189.269 21.88C188.373 20.8987 187.925 19.5013 187.925 17.688V5.912C187.925 4.09867 188.373 2.712 189.269 1.752C190.165 0.770665 191.466 0.279999 193.173 0.279999C194.88 0.279999 196.181 0.770665 197.077 1.752C197.973 2.712 198.421 4.09867 198.421 5.912V7.832H195.093V5.688C195.093 4.216 194.485 3.48 193.269 3.48C192.053 3.48 191.445 4.216 191.445 5.688V17.944C191.445 19.3947 192.053 20.12 193.269 20.12C194.485 20.12 195.093 19.3947 195.093 17.944V13.56H193.333V10.36H198.421V17.688C198.421 19.5013 197.973 20.8987 197.077 21.88C196.181 22.84 194.88 23.32 193.173 23.32ZM200.681 0.599998H210.281V3.8H204.201V9.72H209.033V12.92H204.201V19.8H210.281V23H200.681V0.599998ZM212.306 0.599998H216.722L220.146 14.008H220.21V0.599998H223.346V23H219.73L215.506 6.648H215.442V23H212.306V0.599998ZM230.922 23.32C229.237 23.32 227.946 22.84 227.05 21.88C226.176 20.92 225.738 19.5653 225.738 17.816V5.784C225.738 4.03467 226.176 2.68 227.05 1.72C227.946 0.759999 229.237 0.279999 230.922 0.279999C232.608 0.279999 233.888 0.759999 234.762 1.72C235.658 2.68 236.106 4.03467 236.106 5.784V8.152H232.778V5.56C232.778 4.17333 232.192 3.48 231.018 3.48C229.845 3.48 229.258 4.17333 229.258 5.56V18.072C229.258 19.4373 229.845 20.12 231.018 20.12C232.192 20.12 232.778 19.4373 232.778 18.072V14.648H236.106V17.816C236.106 19.5653 235.658 20.92 234.762 21.88C233.888 22.84 232.608 23.32 230.922 23.32ZM238.212 0.599998H241.732V23H238.212V0.599998ZM244.369 0.599998H253.969V3.8H247.889V9.72H252.721V12.92H247.889V19.8H253.969V23H244.369V0.599998ZM260.632 23.32C258.925 23.32 257.635 22.84 256.76 21.88C255.885 20.8987 255.448 19.5013 255.448 17.688V16.408H258.776V17.944C258.776 19.3947 259.384 20.12 260.6 20.12C261.197 20.12 261.645 19.9493 261.944 19.608C262.264 19.2453 262.424 18.6693 262.424 17.88C262.424 16.9413 262.211 16.12 261.784 15.416C261.357 14.6907 260.568 13.8267 259.416 12.824C257.965 11.544 256.952 10.392 256.376 9.368C255.8 8.32267 255.512 7.14933 255.512 5.848C255.512 4.07733 255.96 2.712 256.856 1.752C257.752 0.770665 259.053 0.279999 260.76 0.279999C262.445 0.279999 263.715 0.770665 264.568 1.752C265.443 2.712 265.88 4.09867 265.88 5.912V6.84H262.552V5.688C262.552 4.92 262.403 4.36533 262.104 4.024C261.805 3.66133 261.368 3.48 260.792 3.48C259.619 3.48 259.032 4.19467 259.032 5.624C259.032 6.43467 259.245 7.192 259.672 7.896C260.12 8.6 260.92 9.45333 262.072 10.456C263.544 11.736 264.557 12.8987 265.112 13.944C265.667 14.9893 265.944 16.216 265.944 17.624C265.944 19.4587 265.485 20.8667 264.568 21.848C263.672 22.8293 262.36 23.32 260.632 23.32Z" fill="url(#paint0_linear_177_225)"/>
<defs>
<linearGradient id="paint0_linear_177_225" x1="133.197" y1="-6" x2="133.197" y2="32" gradientUnits="userSpaceOnUse">
<stop stop-color="white"/>
<stop offset="1" stop-color="#A38DB5" stop-opacity="0.42"/>
</linearGradient>
</defs>
</svg>
