<svg width="329" height="158" viewBox="0 0 329 155" fill="none" xmlns="http://www.w3.org/2000/svg">
<mask id="mask0_90_131" style="mask-type:alpha" maskUnits="userSpaceOnUse" x="0" y="0" width="329" height="155">
<rect width="329" height="155" fill="#D9D9D9"/>
</mask>
<g mask="url(#mask0_90_131)">
<g filter="url(#filter0_d_90_131)">
<path d="M-244.971 56.56C-240.555 60.592 -237.771 66.16 -237.771 72.304C-237.771 84.304 -248.331 94.096 -261.291 94.096H-288.267V68.272H-274.539V81.424H-261.291C-255.915 81.424 -251.403 77.296 -251.403 72.304C-251.403 67.216 -255.915 63.184 -261.291 63.184H-288.267V30.064H-259.275C-249.387 30.064 -241.323 37.456 -241.323 46.576C-241.323 50.32 -242.763 53.776 -244.971 56.56ZM-259.275 50.512C-256.971 50.512 -255.051 48.784 -255.051 46.576C-255.051 44.464 -256.971 42.736 -259.275 42.736H-274.443V50.512H-259.275ZM-214.916 74.8H-228.548V29.968H-214.916V74.8ZM-185.252 94H-228.548V80.272H-185.252V94ZM-127.331 36.688C-121.667 42.064 -118.595 49.168 -118.595 56.656V67.696C-118.595 75.28 -121.667 82.384 -127.331 87.76C-132.899 93.04 -140.387 96.016 -148.259 96.016C-156.227 96.016 -163.619 93.04 -169.283 87.76C-174.851 82.384 -177.923 75.28 -177.923 67.696V56.656C-177.923 49.168 -174.851 42.064 -169.283 36.688C-163.619 31.312 -156.227 28.432 -148.259 28.432C-140.387 28.432 -132.899 31.312 -127.331 36.688ZM-132.323 67.696V56.656C-132.323 48.304 -139.523 41.488 -148.259 41.488C-157.091 41.488 -164.291 48.304 -164.291 56.656V67.696C-164.291 76.144 -157.091 82.96 -148.259 82.96C-139.523 82.96 -132.323 76.144 -132.323 67.696ZM-74.9257 42.832C-86.4457 42.832 -95.8537 51.472 -95.8537 62.128C-95.8537 72.784 -86.4457 81.424 -74.9257 81.424H-58.2217V94.096H-74.9257C-84.1417 94.096 -92.8777 90.736 -99.4057 84.784C-105.934 78.736 -109.486 70.672 -109.486 62.128C-109.486 53.584 -105.934 45.52 -99.4057 39.568C-92.8777 33.52 -84.1417 30.16 -74.9257 30.16H-58.2217V42.832H-74.9257ZM1.767 29.968L-23.097 55.984L-0.920998 94H-16.761L-32.889 66.256L-35.385 68.848V94H-49.017V29.968H-35.385V48.976L-17.145 29.968H1.767ZM44.679 94H31.047V48.4H44.679V94ZM10.983 29.968H64.647V43.12H10.983V29.968ZM121.294 36.688C126.958 42.064 130.03 49.168 130.03 56.656V67.696C130.03 75.28 126.958 82.384 121.294 87.76C115.726 93.04 108.238 96.016 100.366 96.016C92.3978 96.016 85.0058 93.04 79.3418 87.76C73.7738 82.384 70.7018 75.28 70.7018 67.696V56.656C70.7018 49.168 73.7738 42.064 79.3418 36.688C85.0058 31.312 92.3978 28.432 100.366 28.432C108.238 28.432 115.726 31.312 121.294 36.688ZM116.302 67.696V56.656C116.302 48.304 109.102 41.488 100.366 41.488C91.5338 41.488 84.3338 48.304 84.3338 56.656V67.696C84.3338 76.144 91.5338 82.96 100.366 82.96C109.102 82.96 116.302 76.144 116.302 67.696ZM166.115 29.968C179.075 29.968 189.635 40.24 189.635 52.72C189.635 65.296 179.075 75.472 166.115 75.472H152.771V94.096H139.139V62.32H152.771H166.115C171.491 62.32 176.003 58 176.003 52.72C176.003 47.536 171.491 43.216 166.115 43.216H152.771V56.944H139.139V29.968H166.115ZM244.458 29.776H258.186V66.352C258.186 73.936 255.114 81.04 249.45 86.416C243.882 91.888 236.394 94.768 228.522 94.768C220.554 94.768 213.162 91.888 207.498 86.416C201.93 81.04 198.858 73.936 198.858 66.352V29.776H212.49V66.352C212.49 74.8 219.69 81.616 228.522 81.616C237.258 81.616 244.458 74.8 244.458 66.352V29.776ZM303.392 55.12C314.912 55.12 324.224 63.568 324.224 74.128V74.896C324.224 85.456 314.912 94 303.392 94H273.728V81.232H303.392C307.328 81.232 310.592 78.448 310.592 74.896V74.128C310.592 70.672 307.328 67.792 303.392 67.792H288.128C276.608 67.792 267.296 59.248 267.296 48.784C267.296 38.32 276.608 29.776 288.128 29.776H316.256V42.544H288.128C284.192 42.544 280.928 45.328 280.928 48.784C280.928 52.24 284.192 55.12 288.128 55.12H303.392Z" fill="white"/>
</g>
<line x1="-293" y1="136.5" x2="329.001" y2="136.5" stroke="white" stroke-width="19" stroke-dasharray="37 37"/>
</g>
<defs>
<filter id="filter0_d_90_131" x="-292.267" y="28.4321" width="620.491" height="75.584" filterUnits="userSpaceOnUse" color-interpolation-filters="sRGB">
<feFlood flood-opacity="0" result="BackgroundImageFix"/>
<feColorMatrix in="SourceAlpha" type="matrix" values="0 0 0 0 0 0 0 0 0 0 0 0 0 0 0 0 0 0 127 0" result="hardAlpha"/>
<feOffset dy="4"/>
<feGaussianBlur stdDeviation="2"/>
<feComposite in2="hardAlpha" operator="out"/>
<feColorMatrix type="matrix" values="0 0 0 0 0 0 0 0 0 0 0 0 0 0 0 0 0 0 0.25 0"/>
<feBlend mode="normal" in2="BackgroundImageFix" result="effect1_dropShadow_90_131"/>
<feBlend mode="normal" in="SourceGraphic" in2="effect1_dropShadow_90_131" result="shape"/>
</filter>
</defs>
</svg>
