<svg width="313" height="113" viewBox="0 0 313 113" fill="none" xmlns="http://www.w3.org/2000/svg">
<g filter="url(#filter0_f_60_847)">
<path d="M240.993 6.54458C269.293 13.3523 290.363 23.4586 300.813 35.2382C311.263 47.0177 310.487 59.7861 298.609 71.4899C286.731 83.1937 264.442 93.1528 235.326 99.7658C206.21 106.379 171.959 109.261 138.081 107.95C104.203 106.638 72.6663 101.209 48.543 92.5346C24.4197 83.8605 9.11138 72.4458 5.07976 60.1261C1.04814 47.8063 8.52751 35.2975 26.3151 24.6111C44.1027 13.9248 83.1278 8.90321 115.113 4.42934C86.3251 8.45598 55.2953 17.8186 39.2858 27.4367C23.2763 37.0548 16.5446 48.3132 20.1732 59.4014C23.8018 70.4896 37.5799 80.7632 59.2917 88.5702C81.0035 96.3771 109.387 101.264 139.879 102.444C170.37 103.625 201.197 101.03 227.403 95.0785C253.609 89.1266 273.67 80.163 284.36 69.6292C295.05 59.0954 297.793 54.0539 288.556 38.0129C281.895 26.4462 265.33 15.8717 240.993 6.54458Z" fill="url(#paint0_linear_60_847)"/>
</g>
<g filter="url(#filter1_f_60_847)">
<path d="M173.879 47.8048C181.943 49.2293 187.957 51.4575 190.953 54.1313C193.95 56.805 193.755 59.7689 190.4 62.5462C187.046 65.3235 180.726 67.7529 172.458 69.4436C164.189 71.1344 154.452 71.9883 144.813 71.8681C135.174 71.7478 126.193 70.6604 119.313 68.7806C112.434 66.9009 108.056 64.3381 106.884 61.5043C105.712 58.6705 107.814 55.7305 112.852 53.157C117.889 50.5834 128.98 49.2078 138.069 47.9973C129.888 49.0868 121.081 51.4253 116.547 53.7416C112.013 56.0578 110.121 58.704 111.176 61.2544C112.231 63.8049 116.171 66.1116 122.362 67.8034C128.554 69.4953 136.638 70.474 145.313 70.5822C153.989 70.6904 162.752 69.9219 170.194 68.4001C177.636 66.8784 183.324 64.6919 186.343 62.1922C189.363 59.6925 190.133 58.509 187.472 54.8409C185.554 52.196 180.821 49.8347 173.879 47.8048Z" fill="url(#paint1_linear_60_847)"/>
</g>
<g filter="url(#filter2_f_60_847)">
<path d="M128.019 16.2342C151.897 15.0854 188.465 12.3129 209.146 16.3003C229.827 20.2877 246.306 26.5489 256.36 34.2399C266.414 41.9308 269.56 50.6818 265.375 59.313C261.189 67.9443 249.873 76.0409 232.952 82.5113C216.031 88.9816 194.318 93.5148 170.741 95.4995C147.163 97.4843 122.855 96.8252 101.093 93.6113C79.3308 90.3973 61.161 84.7829 49.033 77.5249C36.905 70.2669 47.3136 47.5689 49.1772 38.8747L44.9391 53.1276C43.2618 60.9527 48.2148 68.6503 59.1305 75.1827C70.0461 81.7151 86.3996 86.7683 105.986 89.661C125.573 92.5537 147.451 93.1468 168.672 91.3605C189.892 89.5741 209.434 85.4942 224.664 79.6706C239.894 73.847 250.078 66.5598 253.846 58.7914C257.613 51.0229 254.781 43.1468 245.732 36.2246C236.683 29.3025 221.852 23.6672 203.238 20.0784C184.624 16.4896 163.122 15.1199 141.632 16.1539L128.019 16.2342Z" fill="url(#paint2_linear_60_847)"/>
</g>
<g filter="url(#filter3_f_60_847)">
<path d="M214.082 64.023C204.19 69.1447 190.086 77.4208 173.378 79.5636C156.67 81.7064 138.679 81.9198 122.284 80.1695C105.889 78.4193 92.0399 74.8067 82.9536 69.9101C73.8672 65.0136 70.0695 59.1164 72.1684 53.1628C74.2673 47.2092 82.1415 41.5436 94.5301 37.0732C106.919 32.6028 123.105 29.5862 140.498 28.5064C157.89 27.4266 175.482 28.3461 190.458 31.1176C205.433 33.8892 215.453 41.8246 221.621 47.2649C216.069 42.3684 199.877 35.97 186.399 33.4755C172.92 30.981 157.087 30.1534 141.433 31.1252C125.779 32.0971 111.211 34.8121 100.061 38.8357C88.9104 42.8592 81.8234 47.9584 79.9343 53.3169C78.0452 58.6753 81.4633 63.983 89.6414 68.3901C97.8194 72.7971 110.284 76.0486 125.04 77.6239C139.796 79.1992 155.989 79.0072 171.027 77.0786C186.064 75.1499 199.077 71.5963 207.98 66.9866L214.082 64.023Z" fill="url(#paint3_linear_60_847)"/>
</g>
<defs>
<filter id="filter0_f_60_847" x="0.0141602" y="0.429199" width="312.107" height="111.83" filterUnits="userSpaceOnUse" color-interpolation-filters="sRGB">
<feFlood flood-opacity="0" result="BackgroundImageFix"/>
<feBlend mode="normal" in="SourceGraphic" in2="BackgroundImageFix" result="shape"/>
<feGaussianBlur stdDeviation="2" result="effect1_foregroundBlur_60_847"/>
</filter>
<filter id="filter1_f_60_847" x="102.567" y="43.8047" width="94.4993" height="32.0747" filterUnits="userSpaceOnUse" color-interpolation-filters="sRGB">
<feFlood flood-opacity="0" result="BackgroundImageFix"/>
<feBlend mode="normal" in="SourceGraphic" in2="BackgroundImageFix" result="shape"/>
<feGaussianBlur stdDeviation="2" result="effect1_foregroundBlur_60_847"/>
</filter>
<filter id="filter2_f_60_847" x="39.2466" y="10.2222" width="231.93" height="90.3994" filterUnits="userSpaceOnUse" color-interpolation-filters="sRGB">
<feFlood flood-opacity="0" result="BackgroundImageFix"/>
<feBlend mode="normal" in="SourceGraphic" in2="BackgroundImageFix" result="shape"/>
<feGaussianBlur stdDeviation="2" result="effect1_foregroundBlur_60_847"/>
</filter>
<filter id="filter3_f_60_847" x="67.6045" y="24.0659" width="158.017" height="61.2769" filterUnits="userSpaceOnUse" color-interpolation-filters="sRGB">
<feFlood flood-opacity="0" result="BackgroundImageFix"/>
<feBlend mode="normal" in="SourceGraphic" in2="BackgroundImageFix" result="shape"/>
<feGaussianBlur stdDeviation="2" result="effect1_foregroundBlur_60_847"/>
</filter>
<linearGradient id="paint0_linear_60_847" x1="4.08783" y1="57.3217" x2="276.053" y2="82.571" gradientUnits="userSpaceOnUse">
<stop stop-color="#0EB6CD"/>
<stop offset="0.45625" stop-color="#0852E1" stop-opacity="0.69"/>
<stop offset="1" stop-color="#440675" stop-opacity="0.77"/>
</linearGradient>
<linearGradient id="paint1_linear_60_847" x1="106.596" y1="60.8597" x2="183.619" y2="68.9381" gradientUnits="userSpaceOnUse">
<stop stop-color="#0ECDAB"/>
<stop offset="0.1125" stop-color="#4D257D" stop-opacity="0.780445"/>
<stop offset="0.435417" stop-color="#4D257D" stop-opacity="0.780445"/>
<stop offset="0.820833" stop-color="#590675" stop-opacity="0.74"/>
<stop offset="1" stop-color="#08E16A" stop-opacity="0.69"/>
</linearGradient>
<linearGradient id="paint2_linear_60_847" x1="100.601" y1="31.2444" x2="97.4489" y2="93.1324" gradientUnits="userSpaceOnUse">
<stop stop-color="#0ECD94"/>
<stop offset="0.45625" stop-color="#08C7E1" stop-opacity="0.69"/>
<stop offset="1" stop-color="#590675" stop-opacity="0.77"/>
</linearGradient>
<linearGradient id="paint3_linear_60_847" x1="119.813" y1="22.0242" x2="172.378" y2="89.6094" gradientUnits="userSpaceOnUse">
<stop offset="0.159375" stop-color="#590675" stop-opacity="0.77"/>
<stop offset="0.45625" stop-color="#08ADE1" stop-opacity="0.69"/>
<stop offset="0.732292" stop-color="#0ECDCD"/>
</linearGradient>
</defs>
</svg>
