<svg width="622" height="146" viewBox="0 0 622 146" fill="none" xmlns="http://www.w3.org/2000/svg">
<g filter="url(#filter0_d_49_271)">
<path d="M48.029 56.56C52.445 60.592 55.229 66.16 55.229 72.304C55.229 84.304 44.669 94.096 31.709 94.096H4.733V68.272H18.461V81.424H31.709C37.085 81.424 41.597 77.296 41.597 72.304C41.597 67.216 37.085 63.184 31.709 63.184H4.733V30.064H33.725C43.613 30.064 51.677 37.456 51.677 46.576C51.677 50.32 50.237 53.776 48.029 56.56ZM33.725 50.512C36.029 50.512 37.949 48.784 37.949 46.576C37.949 44.464 36.029 42.736 33.725 42.736H18.557V50.512H33.725ZM78.0838 74.8H64.4518V29.968H78.0838V74.8ZM107.748 94H64.4518V80.272H107.748V94ZM165.669 36.688C171.333 42.064 174.405 49.168 174.405 56.656V67.696C174.405 75.28 171.333 82.384 165.669 87.76C160.101 93.04 152.613 96.016 144.741 96.016C136.773 96.016 129.381 93.04 123.717 87.76C118.149 82.384 115.077 75.28 115.077 67.696V56.656C115.077 49.168 118.149 42.064 123.717 36.688C129.381 31.312 136.773 28.432 144.741 28.432C152.613 28.432 160.101 31.312 165.669 36.688ZM160.677 67.696V56.656C160.677 48.304 153.477 41.488 144.741 41.488C135.909 41.488 128.709 48.304 128.709 56.656V67.696C128.709 76.144 135.909 82.96 144.741 82.96C153.477 82.96 160.677 76.144 160.677 67.696ZM218.074 42.832C206.554 42.832 197.146 51.472 197.146 62.128C197.146 72.784 206.554 81.424 218.074 81.424H234.778V94.096H218.074C208.858 94.096 200.122 90.736 193.594 84.784C187.066 78.736 183.514 70.672 183.514 62.128C183.514 53.584 187.066 45.52 193.594 39.568C200.122 33.52 208.858 30.16 218.074 30.16H234.778V42.832H218.074ZM294.767 29.968L269.903 55.984L292.079 94H276.239L260.111 66.256L257.615 68.848V94H243.983V29.968H257.615V48.976L275.855 29.968H294.767ZM337.679 94H324.047V48.4H337.679V94ZM303.983 29.968H357.647V43.12H303.983V29.968ZM414.294 36.688C419.958 42.064 423.03 49.168 423.03 56.656V67.696C423.03 75.28 419.958 82.384 414.294 87.76C408.726 93.04 401.238 96.016 393.366 96.016C385.398 96.016 378.006 93.04 372.342 87.76C366.774 82.384 363.702 75.28 363.702 67.696V56.656C363.702 49.168 366.774 42.064 372.342 36.688C378.006 31.312 385.398 28.432 393.366 28.432C401.238 28.432 408.726 31.312 414.294 36.688ZM409.302 67.696V56.656C409.302 48.304 402.102 41.488 393.366 41.488C384.534 41.488 377.334 48.304 377.334 56.656V67.696C377.334 76.144 384.534 82.96 393.366 82.96C402.102 82.96 409.302 76.144 409.302 67.696ZM459.115 29.968C472.075 29.968 482.635 40.24 482.635 52.72C482.635 65.296 472.075 75.472 459.115 75.472H445.771V94.096H432.139V62.32H445.771H459.115C464.491 62.32 469.003 58 469.003 52.72C469.003 47.536 464.491 43.216 459.115 43.216H445.771V56.944H432.139V29.968H459.115ZM537.458 29.776H551.186V66.352C551.186 73.936 548.114 81.04 542.45 86.416C536.882 91.888 529.394 94.768 521.522 94.768C513.554 94.768 506.162 91.888 500.498 86.416C494.93 81.04 491.858 73.936 491.858 66.352V29.776H505.49V66.352C505.49 74.8 512.69 81.616 521.522 81.616C530.258 81.616 537.458 74.8 537.458 66.352V29.776ZM596.392 55.12C607.912 55.12 617.224 63.568 617.224 74.128V74.896C617.224 85.456 607.912 94 596.392 94H566.728V81.232H596.392C600.328 81.232 603.592 78.448 603.592 74.896V74.128C603.592 70.672 600.328 67.792 596.392 67.792H581.128C569.608 67.792 560.296 59.248 560.296 48.784C560.296 38.32 569.608 29.776 581.128 29.776H609.256V42.544H581.128C577.192 42.544 573.928 45.328 573.928 48.784C573.928 52.24 577.192 55.12 581.128 55.12H596.392Z" fill="white"/>
</g>
<line y1="136.5" x2="622.001" y2="136.5" stroke="white" stroke-width="19" stroke-dasharray="37 37"/>
<defs>
<filter id="filter0_d_49_271" x="0.73291" y="28.4321" width="620.491" height="75.584" filterUnits="userSpaceOnUse" color-interpolation-filters="sRGB">
<feFlood flood-opacity="0" result="BackgroundImageFix"/>
<feColorMatrix in="SourceAlpha" type="matrix" values="0 0 0 0 0 0 0 0 0 0 0 0 0 0 0 0 0 0 127 0" result="hardAlpha"/>
<feOffset dy="4"/>
<feGaussianBlur stdDeviation="2"/>
<feComposite in2="hardAlpha" operator="out"/>
<feColorMatrix type="matrix" values="0 0 0 0 0 0 0 0 0 0 0 0 0 0 0 0 0 0 0.25 0"/>
<feBlend mode="normal" in2="BackgroundImageFix" result="effect1_dropShadow_49_271"/>
<feBlend mode="normal" in="SourceGraphic" in2="effect1_dropShadow_49_271" result="shape"/>
</filter>
</defs>
</svg>
